<?xml version="1.0" encoding="UTF-8"?>
<!DOCTYPE svg PUBLIC "-//W3C//DTD SVG 1.1//EN" "http://www.w3.org/Graphics/SVG/1.1/DTD/svg11.dtd">
<!-- Creator: CorelDRAW (Versión de evaluación) -->
<svg xmlns="http://www.w3.org/2000/svg" xml:space="preserve" width="76.2mm" height="76.2mm" version="1.1" style="shape-rendering:geometricPrecision; text-rendering:geometricPrecision; image-rendering:optimizeQuality; fill-rule:evenodd; clip-rule:evenodd"
viewBox="0 0 7620 7620"
 xmlns:xlink="http://www.w3.org/1999/xlink"
 xmlns:xodm="http://www.corel.com/coreldraw/odm/2003">
 <defs>
  <style type="text/css">
   <![CDATA[
    .str0 {stroke:#5CC6D0;stroke-width:20;stroke-miterlimit:22.9256}
    .fil0 {fill:#5CC6D0}
    .fil2 {fill:black}
    .fil12 {fill:#303646}
    .fil6 {fill:#5AD6FE}
    .fil8 {fill:#5C576D}
    .fil5 {fill:#A4E7FF}
    .fil4 {fill:#D4D4FF}
    .fil7 {fill:#EA5B70}
    .fil1 {fill:#EEECFF}
    .fil10 {fill:#F8E86A}
    .fil11 {fill:#F9CF62}
    .fil3 {fill:#FD8D9D}
    .fil9 {fill:#FFA1AC}
   ]]>
  </style>
 </defs>
 <g id="Capa_x0020_1">
  <metadata id="CorelCorpID_0Corel-Layer"/>
  <ellipse class="fil0 str0" cx="3799.01" cy="3795.73" rx="3706.2" ry="3421.92"/>
  <g id="_1987184823040">
   <path class="fil1" d="M2249.18 4455.31l62.62 -48.17c63.24,-51.94 134.88,-89.01 217.78,-110.05 116.25,-29.52 300.63,-17.65 427.78,-17.82 245.49,-0.32 462.61,65.96 582.67,296.48 107.73,206.87 70.72,558.74 70.72,814.81 0,289.21 -7.1,587.47 0.79,875.56l1520.56 0c168.89,0 293.69,15.71 424.08,-71.36 260.26,-173.76 203.08,-441.91 203.08,-814.75l-0.11 -760.32c-0.48,-94.44 -10.2,-140.73 80.27,-154.93l0 -213.15c-95.37,-15.93 -80.51,-79.2 -80.18,-170.05 0.3,-85.88 -0.15,-171.76 0.16,-257.63 -141.5,-32.42 -283.61,-183.99 -404.15,-282.57 -290.1,-237.26 -608.61,-533.29 -909.09,-780.05l-306.03 -264.06c-125.9,-113.51 -248.47,-239.97 -455.41,-190.01 -74.05,17.88 -103.44,38.87 -153.98,77.74l-847.48 725.95c-24.65,18.99 -36.72,34.61 -60.55,55.15 -250.04,215.33 -377.81,524.53 -380.08,862.52 -0.45,66.5 -12.18,391.99 6.55,426.71z"/>
   <path class="fil2" d="M2112.8 2170.07c126.5,51.13 118.61,4.44 287.61,-134.07l245.18 -208.91c80.63,-74.39 159.49,-136.86 243.67,-209.92 269.58,-233.99 497.54,-457.94 923.45,-439.23 353.41,15.52 548.57,189.43 764.65,375.86 42.37,36.55 75.59,68.96 118.33,103.02 223.62,178.23 528.05,466.74 734.63,627.36 205.04,159.42 524.06,463.91 735.06,626.97 142.15,109.86 222.14,294.61 64.13,451.81 -36.17,35.98 -70.24,76.79 -110.74,111.02 -90.5,76.49 -239.11,83.13 -341.26,4.18 -46.88,-36.22 -79.77,-68.93 -124.47,-107.46 -39.16,-33.74 -83.65,-68.53 -119.31,-102.57l-488.18 -419.63c-168.91,-129.89 -431.25,-378.79 -614.28,-526.13 -197.8,-159.24 -389.38,-408.53 -784,-336.59 -254.68,46.44 -368.27,200.15 -556.17,350.43l-731.15 630.35c-42.14,33.47 -85.18,69.7 -125.06,107.34 -27.75,26.18 -93.4,86.38 -123.71,95.38 -43.59,60.81 -120.02,107.29 -172.89,157.2 -123.29,116.38 -255.15,249.49 -427.56,195.45 -87.95,-27.57 -129.35,-89.06 -178.29,-138.09 -55.66,-55.77 -107.94,-102.41 -105.88,-220.86 1.89,-108.8 53.01,-161.96 104.45,-211.81l349.62 -295.36c55.85,-59.8 113.48,-100.04 178.13,-158.33 30.07,-27.1 59.92,-47.48 91.12,-77.71 47.01,-45.53 28.39,-65.51 13.43,-122.41 -22.2,-6.44 -63.75,-51.95 -127.99,7.54l-191.5 167.46c-78.28,60.91 -417.28,349.9 -483.82,424.09 -55.74,62.15 -86.99,147.27 -92.35,236.72l0 55.66c5.28,88.93 35.9,178.34 93.22,250.48 66.35,83.47 190.22,204.39 301.42,236.99 66.59,19.51 94.11,19.59 154.32,14.59 0,232.94 -18.1,2073.38 14.88,2254.87 24.22,133.33 122.68,279.31 212.69,346.84 129.92,97.48 216.6,132.68 437.52,132.55l2839.84 0 199.39 0c108.12,-2.87 180.22,-17.19 293.37,-77.32 119.47,-63.47 212.22,-174.99 264.48,-305.6 59.97,-149.89 45.1,-322.45 45.1,-524.98 0,-68.12 7.53,-944.14 -4.04,-988.33 -10.39,-39.68 -36.9,-66.11 -80.42,-64.16 -90.47,14.2 -80.75,60.49 -80.27,154.93l0.11 760.32c0,372.84 57.18,640.99 -203.08,814.75 -130.39,87.07 -255.19,71.36 -424.08,71.36l-1520.56 0c-7.89,-288.09 -0.79,-586.35 -0.79,-875.56 0,-256.07 37.01,-607.94 -70.72,-814.81 -120.06,-230.52 -337.18,-296.8 -582.67,-296.48 -127.15,0.17 -311.53,-11.7 -427.78,17.82 -82.9,21.04 -154.54,58.11 -217.78,110.05l-62.62 48.17c-21.4,46.93 -66.09,87.79 -95.48,152.44 -25.62,56.38 -45.07,121.51 -50.8,191.82 -15.8,193.95 -2.73,1202.08 -2.73,1445.14 -157.29,-22.7 -310.23,-211.73 -318.38,-410.42 -9.65,-235.29 -0.52,-491.19 -0.52,-728.76 0,-485.05 -6.88,-975.08 0.5,-1459.51 66.03,-21.91 85.82,-52.43 133.25,-89.58l239.21 -204.39c267.91,-224.99 549.1,-481.32 823.32,-707.44l465.9 -399.69c186.5,-152.42 467.85,-150.15 659.64,4.51l943.87 808.91c45.06,40.79 72.78,65.3 118.33,103.01 106.01,87.78 505.82,455.72 593.76,484.67l0.35 177.91c-0.31,85.87 0.14,171.75 -0.16,257.63 -0.33,90.85 -15.19,154.12 80.18,170.05 109.58,-14.4 84.47,-113.57 84.46,-233.46 -0.02,-109.09 0,-218.18 0,-327.26 193.15,44.99 425.66,-185.56 502.58,-320.87 29.87,-52.55 45.07,-117.9 46.38,-185.41l0 -18.84c-0.93,-49.72 -9.27,-100.09 -24.77,-146.89 -39.37,-118.96 -150.26,-211.35 -248.16,-290.23 -25.9,-20.87 -31.88,-25.23 -57,-48.58 -24.24,-22.54 -33.77,-25.01 -58.02,-47.55l-285.73 -242.12c-49.92,-44.44 -33.71,-74.79 -33.64,-177.5l0 -643.98c39.84,-3.31 74.48,-26.9 97.74,-50.05 94.06,-93.6 122.21,-482.07 -127.45,-498.91l-920.42 0 -313.49 0c-75,6.92 -155.79,67.72 -161.58,137.24 -42.2,-3.51 -105.2,-42.26 -150.71,-60.43 -108.21,-43.19 -219.06,-68.32 -329.64,-76.81l-170.52 0c-249.32,18.96 -489.57,120.47 -686.72,288.19l-296.08 252.88c-26.34,24.48 -36.18,30.72 -62.84,53.28 -40.51,34.27 -77.75,71.75 -117.74,103.96l-358.99 306.1c-60.83,48.1 -77.34,49.46 -54.28,145.7z"/>
   <path class="fil3" d="M2112.8 2170.07c-13.59,19.25 -125.98,113.02 -149.49,127.29 14.96,56.9 33.58,76.88 -13.43,122.41 -31.2,30.23 -61.05,50.61 -91.12,77.71 -64.65,58.29 -122.28,98.53 -178.13,158.33 14.81,183.51 291.38,480.02 430.55,513.47 30.31,-9 95.96,-69.2 123.71,-95.38 39.88,-37.64 82.92,-73.87 125.06,-107.34l731.15 -630.35c187.9,-150.28 301.49,-303.99 556.17,-350.43 394.62,-71.94 586.2,177.35 784,336.59 183.03,147.34 445.37,396.24 614.28,526.13l488.18 419.63c35.66,34.04 80.15,68.83 119.31,102.57 44.7,38.53 77.59,71.24 124.47,107.46 102.15,78.95 250.76,72.31 341.26,-4.18 40.5,-34.23 74.57,-75.04 110.74,-111.02 158.01,-157.2 78.02,-341.95 -64.13,-451.81 -211,-163.06 -530.02,-467.55 -735.06,-626.97 -206.58,-160.62 -511.01,-449.13 -734.63,-627.36 -42.74,-34.06 -75.96,-66.47 -118.33,-103.02 -216.08,-186.43 -411.24,-360.34 -764.65,-375.86 -425.91,-18.71 -653.87,205.24 -923.45,439.23 -84.18,73.06 -163.04,135.53 -243.67,209.92l-245.18 208.91c-169,138.51 -161.11,185.2 -287.61,134.07z"/>
   <path class="fil4" d="M2249.18 4455.31c-18.73,-34.72 -7,-360.21 -6.55,-426.71 2.27,-337.99 130.04,-647.19 380.08,-862.52 23.83,-20.54 35.9,-36.16 60.55,-55.15l847.48 -725.95c50.54,-38.87 79.93,-59.86 153.98,-77.74 206.94,-49.96 329.51,76.5 455.41,190.01l306.03 264.06c300.48,246.76 618.99,542.79 909.09,780.05 120.54,98.58 262.65,250.15 404.15,282.57l-0.35 -177.91c-87.94,-28.95 -487.75,-396.89 -593.76,-484.67 -45.55,-37.71 -73.27,-62.22 -118.33,-103.01l-943.87 -808.91c-191.79,-154.66 -473.14,-156.93 -659.64,-4.51l-465.9 399.69c-274.22,226.12 -555.41,482.45 -823.32,707.44l-239.21 204.39c-47.43,37.15 -67.22,67.67 -133.25,89.58 -7.38,484.43 -0.5,974.46 -0.5,1459.51 0,237.57 -9.13,493.47 0.52,728.76 8.15,198.69 161.09,387.72 318.38,410.42 0,-243.06 -13.07,-1251.19 2.73,-1445.14 5.73,-70.31 25.18,-135.44 50.8,-191.82 29.39,-64.65 74.08,-105.51 95.48,-152.44z"/>
   <path class="fil2" d="M4088.84 5233.35c-244.71,15.62 -315.4,289.23 -143.93,426.16 84.31,67.33 201.05,49.84 321.52,49.84 126.68,0 253.36,0 380.05,0 167.58,0 600.71,35.16 701.21,-50.57 138.09,-117.79 139.62,-354.13 -104.45,-421.46 -3.48,-0.96 -13.75,-3.72 -17.01,-4.85 -26.13,-8.99 -11.8,-2.84 -24.6,-10.82 0,-165.7 21.05,-606.09 -5.75,-740.57 -48.57,-243.64 -299.79,-201.79 -549.41,-201.79 -203.13,0 -500.59,-57.36 -552.45,200.8 -13.08,65.09 -5.18,638.23 -5.18,753.26z"/>
   <path class="fil5" d="M2523.67 6266.28l928.14 -0.25c9.46,-418.7 0.6,-847.15 0.62,-1266.07 0.03,-576.92 -247.9,-561.22 -720.7,-562.36 -29.06,46.8 -44.63,17.26 -126.13,136.85 -127.21,186.64 -85.48,421.57 -85.48,678.87 0,168.23 -8.79,911.92 3.55,1012.96z"/>
   <path class="fil6" d="M2523.67 6266.28c-12.34,-101.04 -3.55,-844.73 -3.55,-1012.96 0,-257.3 -41.73,-492.23 85.48,-678.87 81.5,-119.59 97.07,-90.05 126.13,-136.85 -504.35,-0.64 -473.23,376.78 -473.23,678.48 0,379.07 -10.36,772.79 0.86,1150.04l264.31 0.16z"/>
   <path class="fil7" d="M2111.18 3169.28c-139.17,-33.45 -415.74,-329.96 -430.55,-513.47l-349.62 295.36c-51.44,49.85 -102.56,103.01 -104.45,211.81 -2.06,118.45 50.22,165.09 105.88,220.86 48.94,49.03 90.34,110.52 178.29,138.09 172.41,54.04 304.27,-79.07 427.56,-195.45 52.87,-49.91 129.3,-96.39 172.89,-157.2z"/>
   <path class="fil2" d="M3671.33 3198.64c-439.2,54.92 -193.83,717.48 195.02,588.11 134.66,-44.81 257.12,-196.61 230.61,-391 -26.13,-191.59 -228.43,-221.78 -425.63,-197.11z"/>
   <path class="fil8" d="M5599.35 2213.6l0.84 -637.7 -744.18 0.69c30.25,45.64 472.81,407.17 550.93,477.81 38.45,34.78 158.98,144.25 192.41,159.2z"/>
   <path class="fil9" d="M4502.07 3399.1c-68.98,40.85 -253.57,115.16 -185.41,305 98.25,273.67 630.87,212.12 608.44,-87.3 -15.14,-202.27 -251.6,-214.81 -289.56,-241.2 -58.19,45.73 -60.6,45.48 -133.47,23.5z"/>
   <path class="fil9" d="M3038.34 3399.04c-72.93,22.09 -75.15,22.22 -133.53,-23.29 -38.91,26.86 -112.87,17.19 -182.7,69.51 -205.74,154.12 -92.65,401.77 152.62,432.34 159.41,19.87 301.41,-56.29 345.99,-166.08 32.46,-79.98 12.58,-156.76 -32.43,-209.32 -61.92,-72.3 -68.41,-54.63 -149.95,-103.16z"/>
   <path class="fil10" d="M5730.23 1405.61c25.04,-3.3 30.13,24.64 29.44,-100.5 -0.25,-44.18 7.4,-79.83 -15.26,-116.04 -53.72,-28.79 -783.72,-10.57 -910.05,-10.81l-5.8 221.74c152.87,0.31 302.16,0.06 451.34,0.06 96.29,0 376.78,-11.75 450.33,5.55z"/>
   <path class="fil8" d="M4287.54 5551.04l886.79 0c147.93,0 146.69,-159.83 0,-159.83l-889.43 0c-95.3,0 -266.82,-29.51 -272.8,73.89 -6.95,120.41 185.22,85.94 275.44,85.94z"/>
   <path class="fil2" d="M3003.64 5240.86c-118.67,30.25 -221.35,138.01 -179.28,293.04 29.03,106.95 150.73,207 294.9,166.02 298.22,-84.76 172.68,-532.56 -115.62,-459.06z"/>
   <polygon class="fil6" points="4247.15,5230.95 4287.52,5233.32 4565.32,5232.93 4566.09,4914.06 4247.15,4914.44 "/>
   <polygon class="fil5" points="4724.41,5228.57 4762.51,5233.77 5005.42,5232.9 5043.5,5229.51 5043.36,4918.96 4724.42,4914.5 "/>
   <path class="fil5" d="M4247.17 4556.56l0 158.35 0.87 39.24 316.08 1.72 2.33 -40.94 -0.39 -277.31 -194.06 0c-93.23,0 -124.83,26.12 -124.83,118.94z"/>
   <path class="fil6" d="M4724.55 4752.25l318.09 0.81c4.12,-174.74 28.82,-306.8 -99.8,-315.39 -50.39,-3.36 -172.19,-4.32 -218.44,5.05l0.15 309.53z"/>
   <path class="fil11" d="M5730.23 1405.61c-73.55,-17.3 -354.04,-5.55 -450.33,-5.55 -149.18,0 -298.47,0.25 -451.34,-0.06l5.8 -221.74c-89.11,0.16 -267.97,-9.85 -339.55,7.43l-10.78 89.79c64.32,32.79 141.13,137.73 204.86,142.49l1003.08 0.28c47.43,-5.16 19.42,3.59 38.26,-12.64z"/>
   <path class="fil12" d="M3666.94 3360.62c-180.05,38.64 10.91,394.7 195.14,253.09 37.85,-29.1 115.92,-139.97 70.82,-222.65 -29.67,-54.38 -211.14,-42.2 -265.96,-30.44z"/>
   <path class="fil2" d="M2904.81 3375.75c58.38,45.51 60.6,45.38 133.53,23.29 19.72,-60.53 56.49,-255.9 -50.93,-266.31 -116.47,-11.29 -95.89,157.32 -82.6,243.02z"/>
   <path class="fil2" d="M4502.07 3399.1c72.87,21.98 75.28,22.23 133.47,-23.5 13.48,-85.6 33.86,-253.99 -82.47,-242.88 -107.46,10.27 -70.72,206 -51,266.38z"/>
   <path class="fil10" d="M3030.01 5396.87c-107.33,34.61 -42.36,188.9 57.81,146.18 83.75,-35.71 41.32,-178.14 -57.81,-146.18z"/>
  </g>
 </g>
</svg>
