<?xml version="1.0" encoding="UTF-8"?>
<!DOCTYPE svg PUBLIC "-//W3C//DTD SVG 1.1//EN" "http://www.w3.org/Graphics/SVG/1.1/DTD/svg11.dtd">
<!-- Creator: CorelDRAW (Versión de evaluación) -->
<svg xmlns="http://www.w3.org/2000/svg" xml:space="preserve" width="76.2mm" height="76.2mm" version="1.1" style="shape-rendering:geometricPrecision; text-rendering:geometricPrecision; image-rendering:optimizeQuality; fill-rule:evenodd; clip-rule:evenodd"
viewBox="0 0 7620 7620"
 xmlns:xlink="http://www.w3.org/1999/xlink"
 xmlns:xodm="http://www.corel.com/coreldraw/odm/2003">
 <defs>
  <style type="text/css">
   <![CDATA[
    .str0 {stroke:#5CC6D0;stroke-width:20;stroke-miterlimit:22.9256}
    .fil1 {fill:#F7ADAF}
    .fil0 {fill:#5CC6D0}
    .fil2 {fill:#020202}
    .fil5 {fill:#72836D}
    .fil4 {fill:#FDCD82}
    .fil3 {fill:#FDF49D}
   ]]>
  </style>
 </defs>
 <g id="Capa_x0020_1">
  <metadata id="CorelCorpID_0Corel-Layer"/>
  <ellipse class="fil0 str0" cx="3857.36" cy="3700.86" rx="3659.77" ry="3379.05"/>
  <g id="_1987303830336">
   <path class="fil1" d="M1663.76 4682.42c-8.52,-143.27 297.92,-92.19 407.51,-92.24l1246.82 -0.08c86.84,-0.78 178.79,-13.74 182.71,79.92 5.93,141.58 -297.41,89.73 -414.12,89.76l-1002.56 0.15c-117.94,-0.01 -413.06,45.47 -420.36,-77.51zm2368.12 -231.36c-43.65,-493.78 470.93,-882.09 937.35,-647.11 121.02,60.96 89.42,-40.12 332.33,-65.26 350.68,-36.3 686.4,217.36 719.65,583.2 46.62,512.9 -457.11,875.81 -947.09,647.15 -75.64,-35.3 -79.49,-0.02 -156.15,29.83 -394.82,153.73 -847.6,-112.32 -886.09,-547.81zm-2366.39 -334.19c-16.69,-133.99 175.15,-100.18 277.25,-100.14l771.2 0.21c101.15,0 300.62,-34.12 322.84,63.73 33.04,145.47 -189.46,105.78 -284.28,105.73l-771.21 0c-106.14,0.01 -302.79,34.99 -315.8,-69.53zm-387.55 -655.52l0.07 1632.38c-0.11,400.11 380.41,313.11 728.99,313.12l4061.66 0c195.47,0 364.51,-26.68 364.51,-300.27l-0.57 -1736.7 -5154.59 2.35 -0.07 89.12z"/>
   <path class="fil2" d="M1278.01 3372.23l5154.59 -2.35 0.57 1736.7c0,273.59 -169.04,300.27 -364.51,300.27l-4061.66 0c-348.58,-0.01 -729.1,86.99 -728.99,-313.12l-0.07 -1632.38 0.07 -89.12zm-0.04 -669.94l5152.59 -0.27c7.45,84.67 13.12,429.2 -4.75,498.16l-5147.39 -2.89 -0.45 -495zm2.57 -172.86c-53.58,-672.44 229.1,-529.44 1022.09,-529.44l3136.21 0c171.06,0 640.22,-21.96 776.33,4.87 103.43,20.39 173.17,95.22 203.83,179.92 16.43,45.43 36.8,308.77 -0.69,347.81l-5137.77 -3.16zm5287.3 -434.27c-24.82,0 -16.62,4.36 -9.37,-23.61l-12.28 -26.12 -25.52 -38.92c-25.48,-21.46 -27.45,-30.33 -50.12,-52.42 -21.7,-21.14 -36.71,-27.9 -57.38,-45.38l-21.65 -16.83 -20.19 -5.45 -26.39 -19.09c-206.69,-77.15 -816.88,-39.47 -1086.04,-39.47l-3393.29 0c-178.1,0 -379.23,-20.18 -518.66,47.84 -108.01,52.7 -214.91,172.55 -236.19,329.74 -17.54,129.58 -4.1,2515.07 -4.66,2824.01 -0.37,199.78 20.94,315.69 131.97,421.85 121.42,116.1 220.3,127.43 434.74,127.3l3958.83 0c178.38,0 389.01,10.31 563.38,-0.43 170.3,-10.5 284.95,-117.24 346.35,-215.84 88.8,-142.6 63.96,-314.16 63.96,-499.98l0 -1696.64c0,-221.71 32.93,-921.14 -37.49,-1070.56z"/>
   <path class="fil1" d="M1280.54 2529.43l5137.77 3.16c37.49,-39.04 17.12,-302.38 0.69,-347.81 -30.66,-84.7 -100.4,-159.53 -203.83,-179.92 -136.11,-26.83 -605.27,-4.87 -776.33,-4.87l-3136.21 0c-792.99,0 -1075.67,-143 -1022.09,529.44z"/>
   <path class="fil3" d="M1278.42 3197.29l5147.39 2.89c17.87,-68.96 12.2,-413.49 4.75,-498.16l-5152.59 0.27 0.45 495z"/>
   <path class="fil2" d="M5251.74 3923.01c297.31,-84.59 534.63,125.92 589.48,347.05 74.69,301.12 -129.01,536.32 -354.24,589.65 -600.74,142.26 -869.48,-756.23 -235.24,-936.7zm-370.44 908.4c-350.41,134.52 -681.94,-101.48 -681.33,-445.01 0.76,-429.1 484.12,-563.24 679.85,-436.62 -35.21,63.16 -74.61,100.1 -112.62,189.1 -69.32,162.28 -65.46,356.85 6.24,515.24 51.8,114.43 84.97,133.11 107.86,177.29zm-849.42 -380.35c38.49,435.49 491.27,701.54 886.09,547.81 76.66,-29.85 80.51,-65.13 156.15,-29.83 489.98,228.66 993.71,-134.25 947.09,-647.15 -33.25,-365.84 -368.97,-619.5 -719.65,-583.2 -242.91,25.14 -211.31,126.22 -332.33,65.26 -466.42,-234.98 -981,153.33 -937.35,647.11z"/>
   <path class="fil4" d="M5251.74 3923.01c-634.24,180.47 -365.5,1078.96 235.24,936.7 225.23,-53.33 428.93,-288.53 354.24,-589.65 -54.85,-221.13 -292.17,-431.64 -589.48,-347.05z"/>
   <path class="fil3" d="M4881.3 4831.41c-22.89,-44.18 -56.06,-62.86 -107.86,-177.29 -71.7,-158.39 -75.56,-352.96 -6.24,-515.24 38.01,-89 77.41,-125.94 112.62,-189.1 -195.73,-126.62 -679.09,7.52 -679.85,436.62 -0.61,343.53 330.92,579.53 681.33,445.01z"/>
   <path class="fil2" d="M3086.68 4759.78c116.71,-0.03 420.05,51.82 414.12,-89.76 -3.92,-93.66 -95.87,-80.7 -182.71,-79.92l-1246.82 0.08c-109.59,0.05 -416.03,-51.03 -407.51,92.24 7.3,122.98 302.42,77.5 420.36,77.51l1002.56 -0.15z"/>
   <path class="fil2" d="M1665.49 4116.87c13.01,104.52 209.66,69.54 315.8,69.53l771.21 0c94.82,0.05 317.32,39.74 284.28,-105.73 -22.22,-97.85 -221.69,-63.73 -322.84,-63.73l-771.2 -0.21c-102.1,-0.04 -293.94,-33.85 -277.25,100.14z"/>
   <path class="fil5" d="M6371.33 1886.43l20.19 5.45 21.65 16.83c20.67,17.48 35.68,24.24 57.38,45.38 22.67,22.09 24.64,30.96 50.12,52.42l25.52 38.92 12.28 26.12c-7.25,27.97 -15.45,23.61 9.37,23.61l-9.37 -23.61 -12.28 -26.12 -25.52 -38.92c-39.78,-40.84 -57.69,-69.46 -107.5,-97.8l-21.65 -16.83 -20.19 -5.45 -26.39 -19.09 26.39 19.09z"/>
  </g>
 </g>
</svg>
