<?xml version="1.0" encoding="UTF-8"?>
<!DOCTYPE svg PUBLIC "-//W3C//DTD SVG 1.1//EN" "http://www.w3.org/Graphics/SVG/1.1/DTD/svg11.dtd">
<!-- Creator: CorelDRAW (Versión de evaluación) -->
<svg xmlns="http://www.w3.org/2000/svg" xml:space="preserve" width="76.2mm" height="76.2mm" version="1.1" style="shape-rendering:geometricPrecision; text-rendering:geometricPrecision; image-rendering:optimizeQuality; fill-rule:evenodd; clip-rule:evenodd"
viewBox="0 0 7620 7620"
 xmlns:xlink="http://www.w3.org/1999/xlink"
 xmlns:xodm="http://www.corel.com/coreldraw/odm/2003">
 <defs>
  <style type="text/css">
   <![CDATA[
    .str0 {stroke:#5CC6D0;stroke-width:20;stroke-miterlimit:22.9256}
    .fil0 {fill:#5CC6D0}
    .fil2 {fill:black}
    .fil8 {fill:#29374B}
    .fil6 {fill:#563A3E}
    .fil7 {fill:#6D693B}
    .fil4 {fill:#7BA0DA}
    .fil1 {fill:#E58996}
    .fil3 {fill:#F4EC85}
    .fil5 {fill:#FEFEFE}
   ]]>
  </style>
 </defs>
 <g id="Capa_x0020_1">
  <metadata id="CorelCorpID_0Corel-Layer"/>
  <ellipse class="fil0 str0" cx="3799.01" cy="3795.73" rx="3706.2" ry="3421.92"/>
  <g id="_1986917578320">
   <path class="fil1" d="M5593.44 5049.36c-31.17,29.16 -471.16,14.13 -552.52,14.56 6.46,88.93 19.83,506.03 -12.55,554.54 0.54,57.84 -37.83,109.37 -90.35,143.39 -59.06,38.27 -108.42,35.38 -189.96,35.1 -377.24,-1.28 -628.95,79.01 -628.17,-286.87 0.31,-149.87 1.3,-299.74 1.3,-450.2 -719.5,0 -734.84,73.1 -734.84,-461.97 0,-524.78 17.1,-454.98 734.84,-454.98 0,-731.5 -64.81,-735.1 466.62,-735.1 527.91,0 450.91,32.47 450.91,735.1 809.36,0 735.14,-64.44 736.2,639.96 0.19,121.04 -36.72,259.02 -181.48,266.47zm-2103.13 -1767.5c512.25,-70.36 642.12,377.25 316.44,535.69 -154.79,75.31 -357.23,47.31 -468.57,-52.69 -117.78,-105.79 -142.76,-308.22 11.36,-400.56 -37.05,-50.53 -44.07,-70.88 -43.88,-159.24 0.18,-79.59 -2.18,-100.96 30.66,-151.14 187.08,-46.69 148.1,78.7 153.99,227.94zm-1101.88 -89.79c67.02,-21.94 98.32,46.91 145.99,70.1 185.16,90.09 245.81,-158.31 352.23,-44.41 54.02,57.84 7.29,130.08 -27.41,156.42 -317.23,240.82 -707.97,-104.46 -470.81,-182.11zm-509.69 175.79c52.13,19.11 103,111.15 104.15,194.35 1.36,97.97 -55.96,159.57 -102.74,201.83 -295.42,266.72 -822.1,-80.03 -575.83,-354.1 113.86,-126.72 309.42,-177.17 434.74,-114.05 -2.19,-52.91 -11.21,-160.63 10.41,-205.11 18.6,-38.24 84.32,-70.69 137.71,-32.77 45.26,32.13 63.51,235.05 -8.44,309.85zm-273.79 -1382.99l-101.08 59.11c-36.46,21.9 -71.05,40.93 -102.72,64.1 56.65,126.59 -30.92,119.79 -216.81,319.19 -331.18,355.26 -436.93,820.78 -348.47,1325.36 84.4,481.41 357.34,1004.71 661.71,1371.78 47.67,57.48 92.26,106.21 134.87,160.9l283.99 295.34c98.43,89.41 197.01,179.96 306.37,272.91 207.04,175.98 438.14,324.95 685.69,485.4 109.42,70.93 245.44,152.26 366.36,212.67 307.43,153.56 547.33,227.3 903.67,27.97 212.16,-118.7 295.73,-206.93 396.95,-121.9 49.3,-10.38 163.48,-93.95 213.24,-121.84 -34.86,-127.85 37.76,-145.79 116.69,-199.78 68.8,-47.05 130.23,-91.16 200.6,-144.73 70.06,-53.31 126.09,-96.59 193.83,-151.41 63.19,-51.16 111.02,-99.28 178.55,-153.23l176.41 -169.74c31.6,-31.61 54.43,-54.81 84.4,-88.46 30.11,-33.83 58.18,-52.51 86.82,-85.25l234.21 -283.95c320.65,-390.65 615.62,-1013.45 640.73,-1570.71 11.76,-261.06 -35.36,-371.61 -86.31,-593.64l-279.97 0c0,551.5 55.33,594.33 -391.02,594.33 -432.73,0 -385.58,-25.72 -385.58,-589.45 -122.68,-19.44 -378.13,17.51 -473.71,-19.13 -143.2,-54.92 -120.18,-205.22 -120.18,-378.2 0,-172.97 -17.62,-312.51 128.06,-369.95 83.25,-32.83 351.93,-3.25 465.22,-17.36l0.61 -152.71c-347.78,-124.15 -833.64,-60.36 -1146.19,80.58 -368.33,166.07 -506.14,394.09 -579.17,430.93 -194.35,98.02 -201.75,-142.67 -613.18,-366.15 -783.95,-425.84 -1403.99,-80.51 -1504.89,-70.38 -66.39,6.67 -79.79,-28.13 -109.7,-52.6z"/>
   <path class="fil2" d="M5728.68 2214.19c7.57,-70.63 -12.63,-451.59 18.07,-499.91l48.03 -16.06c67.91,-5.14 308.67,-9.81 353.42,15.2 17.47,124.38 -33.36,474.84 35.73,548.87 75.34,80.72 425.08,32.49 559.88,43.05l0.69 403.61c-727.99,55.1 -556.5,-166.02 -594.9,591.34l-405.92 5.43c-5.21,-121.19 24.84,-495.41 -32,-558.81 -74.53,-83.15 -430.9,-3.6 -560.66,-43.41l-2.59 -391.23c151.76,-52.95 560.62,77.76 580.25,-98.08zm1201.05 72.18l0 377.66c-1.82,131.42 -27.08,169.69 -123.26,220.58 27.3,117.22 44.41,117.8 69.09,288.35 30.16,208.29 10.8,450.52 -26.85,653.67 -95.34,514.35 -385.16,1035.15 -710.68,1434.04 -29.68,36.39 -57.15,67.37 -83.41,101.48 -28.93,37.53 -52.48,53.82 -82.68,89.88 -89.3,106.67 -358.2,374.21 -452.56,447.23 -195.52,151.26 -264.1,220.79 -500.08,387.38 -76.13,53.75 -133.39,130.02 -230.58,49.22 -34.86,-127.85 37.76,-145.79 116.69,-199.78 68.8,-47.05 130.23,-91.16 200.6,-144.73 70.06,-53.31 126.09,-96.59 193.83,-151.41 63.19,-51.16 111.02,-99.28 178.55,-153.23l176.41 -169.74c31.6,-31.61 54.43,-54.81 84.4,-88.46 30.11,-33.83 58.18,-52.51 86.82,-85.25l234.21 -283.95c320.65,-390.65 615.62,-1013.45 640.73,-1570.71 11.76,-261.06 -35.36,-371.61 -86.31,-593.64l-279.97 0c0,551.5 55.33,594.33 -391.02,594.33 -432.73,0 -385.58,-25.72 -385.58,-589.45 -122.68,-19.44 -378.13,17.51 -473.71,-19.13 -143.2,-54.92 -120.18,-205.22 -120.18,-378.2 0,-172.97 -17.62,-312.51 128.06,-369.95 83.25,-32.83 351.93,-3.25 465.22,-17.36l0.61 -152.71c-347.78,-124.15 -833.64,-60.36 -1146.19,80.58 -368.33,166.07 -506.14,394.09 -579.17,430.93 -194.35,98.02 -201.75,-142.67 -613.18,-366.15 -783.95,-425.84 -1403.99,-80.51 -1504.89,-70.38 -66.39,6.67 -79.79,-28.13 -109.7,-52.6 0,-88 4.48,-98.04 69.15,-128.11 335.62,-156.04 775.92,-176.87 1125.68,-105.36 192.35,39.34 393.34,121.48 540.89,211 100.05,60.7 336.37,222.13 408.97,330.56 61.04,-40.86 100.74,-100.72 157.23,-150.92 418.49,-371.89 1071.84,-512 1642.36,-379.09 0,-290.14 272.44,-259.87 567.23,-246.76 120.04,5.35 213.03,69.96 221.57,185.18 8.97,120.83 0.06,281.47 0.06,406.71 109.44,0 276.86,-9.77 379.07,3.04 145.72,18.26 196.8,78.89 212.57,175.25z"/>
   <path class="fil3" d="M4962.43 4885.17l32.14 -12.23 581.29 -1.08 10.89 -15.88 -2.54 -501.4c-15.89,-30.89 6.42,-17.09 -34.98,-27.84 -163.69,-21.19 -585.82,48.73 -665.51,-49.31 -67.95,-83.62 -5.32,-543.21 -36.02,-678.9 -64.05,-13.98 -462.72,-12.72 -535.32,-2.13 -33.79,145.32 33.75,602.67 -36.74,689.32 -84.17,103.45 -669.84,-17.06 -698.01,64.15 -19.77,56.99 -7.44,487.81 0.15,518.57 143.74,36.08 596.69,-40.42 685.61,41.8 109.69,101.44 -26.29,661 71.03,693.54 53.36,17.84 305.24,7.62 376.72,8.41 185.47,2.04 144.17,32.77 144.16,-410.31 0,-135.54 -33.38,-308.74 107.13,-316.71z"/>
   <path class="fil2" d="M5584.21 4354.58c24.09,29.92 23.44,446.81 2.54,501.4 7.37,24.79 13.59,21.76 -10.89,15.88 -55.61,30.08 -518.95,17.84 -613.43,13.31 -140.51,7.97 -107.13,181.17 -107.13,316.71 0.01,443.08 41.31,412.35 -144.16,410.31 -71.48,-0.79 -323.36,9.43 -376.72,-8.41 -97.32,-32.54 38.66,-592.1 -71.03,-693.54 -88.92,-82.22 -541.87,-5.72 -685.61,-41.8 -7.59,-30.76 -19.92,-461.58 -0.15,-518.57 28.17,-81.21 613.84,39.3 698.01,-64.15 70.49,-86.65 2.95,-544 36.74,-689.32 72.6,-10.59 471.27,-11.85 535.32,2.13 30.7,135.69 -31.93,595.28 36.02,678.9 79.69,98.04 501.82,28.12 665.51,49.31 41.4,10.75 19.09,-3.05 34.98,27.84zm-555.84 1263.88c5.78,-70.82 -5.14,-537.93 11.78,-556.46 25.06,-27.46 474.42,-8.72 553.29,-12.64 144.76,-7.45 181.67,-145.43 181.48,-266.47 -1.06,-704.4 73.16,-639.96 -736.2,-639.96 0,-702.63 77,-735.1 -450.91,-735.1 -531.43,0 -466.62,3.6 -466.62,735.1 -717.74,0 -734.84,-69.8 -734.84,454.98 0,535.07 15.34,461.97 734.84,461.97 0,150.46 -0.99,300.33 -1.3,450.2 -0.78,365.88 250.93,285.59 628.17,286.87 81.54,0.28 130.9,3.17 189.96,-35.1 52.52,-34.02 90.89,-85.55 90.35,-143.39z"/>
   <path class="fil2" d="M4575.48 6457.7c-101.22,-85.03 -184.79,3.2 -396.95,121.9 -356.34,199.33 -596.24,125.59 -903.67,-27.97 -120.92,-60.41 -256.94,-141.74 -366.36,-212.67 -247.55,-160.45 -478.65,-309.42 -685.69,-485.4 -109.36,-92.95 -207.94,-183.5 -306.37,-272.91l-283.99 -295.34c-42.61,-54.69 -87.2,-103.42 -134.87,-160.9 -304.37,-367.07 -577.31,-890.37 -661.71,-1371.78 -88.46,-504.58 17.29,-970.1 348.47,-1325.36 185.89,-199.4 273.46,-192.6 216.81,-319.19 -29.31,-28.02 -56.55,-50.03 -107.82,-29.52 -70.75,28.29 -264.74,231.25 -317.24,300.46 -23.06,30.39 -43.7,57.4 -68.54,91.69 -190.9,263.48 -277.38,554.63 -288.67,858.72l0 140.71c9.02,250.84 65.06,508.78 152.4,765.82 53.11,156.32 126.31,291.11 196.68,431.95 36.18,72.4 72.59,126.34 114.08,194.05 45.81,74.76 81.74,125.95 128.39,192.09 43.96,62.31 82.08,115.11 131.8,176.36l701.2 716.27c412.67,322.55 753.7,580.08 1229.59,816.5 325.64,161.76 671.94,174.9 987.22,-15.35 35.47,-21.4 60.27,-31.28 97.67,-50.23 42.53,-21.55 60.02,-34.76 102.41,-57.82 66.81,-36.35 162.89,-76.07 115.16,-182.08z"/>
   <path class="fil4" d="M5728.68 2214.19c-19.63,175.84 -428.49,45.13 -580.25,98.08l2.59 391.23c129.76,39.81 486.13,-39.74 560.66,43.41 56.84,63.4 26.79,437.62 32,558.81l405.92 -5.43c38.4,-757.36 -133.09,-536.24 594.9,-591.34l-0.69 -403.61c-134.8,-10.56 -484.54,37.67 -559.88,-43.05 -69.09,-74.03 -18.26,-424.49 -35.73,-548.87l-401.45 0.86c-1.11,86.04 -0.49,172.14 -0.49,258.22 0,48.44 21.56,223.05 -17.58,241.69z"/>
   <path class="fil5" d="M3349.54 3364.3c-154.12,92.34 -129.14,294.77 -11.36,400.56 111.34,100 313.78,128 468.57,52.69 325.68,-158.44 195.81,-606.05 -316.44,-535.69 -15.38,78.6 -62.6,97.63 -140.77,82.44z"/>
   <path class="fil5" d="M1878.74 3367.86c-74.12,6.1 -120.04,5.68 -139.68,-71.97 -125.32,-63.12 -320.88,-12.67 -434.74,114.05 -246.27,274.07 280.41,620.82 575.83,354.1 46.78,-42.26 104.1,-103.86 102.74,-201.83 -1.15,-83.2 -52.02,-175.24 -104.15,-194.35z"/>
   <path class="fil2" d="M2388.43 3192.07c-237.16,77.65 153.58,422.93 470.81,182.11 34.7,-26.34 81.43,-98.58 27.41,-156.42 -106.42,-113.9 -167.07,134.5 -352.23,44.41 -47.67,-23.19 -78.97,-92.04 -145.99,-70.1z"/>
   <path class="fil2" d="M1739.06 3295.89c19.64,77.65 65.56,78.07 139.68,71.97 71.95,-74.8 53.7,-277.72 8.44,-309.85 -53.39,-37.92 -119.11,-5.47 -137.71,32.77 -21.62,44.48 -12.6,152.2 -10.41,205.11z"/>
   <path class="fil2" d="M3349.54 3364.3c78.17,15.19 125.39,-3.84 140.77,-82.44 -5.89,-149.24 33.09,-274.63 -153.99,-227.94 -32.84,50.18 -30.48,71.55 -30.66,151.14 -0.19,88.36 6.83,108.71 43.88,159.24z"/>
   <path class="fil6" d="M5028.37 5618.46c32.38,-48.51 19.01,-465.61 12.55,-554.54 81.36,-0.43 521.35,14.6 552.52,-14.56 -78.87,3.92 -528.23,-14.82 -553.29,12.64 -16.92,18.53 -6,485.64 -11.78,556.46z"/>
   <path class="fil7" d="M5586.75 4855.98l-10.89 15.88 -581.29 1.08 -32.14 12.23c94.48,4.53 557.82,16.77 613.43,-13.31 24.48,5.88 18.26,8.91 10.89,-15.88 20.9,-54.59 21.55,-471.48 -2.54,-501.4l2.54 501.4z"/>
   <path class="fil8" d="M5728.68 2214.19c39.14,-18.64 17.58,-193.25 17.58,-241.69 0,-86.08 -0.62,-172.18 0.49,-258.22l401.45 -0.86c-44.75,-25.01 -285.51,-20.34 -353.42,-15.2l-48.03 16.06c-30.7,48.32 -10.5,429.28 -18.07,499.91z"/>
  </g>
 </g>
</svg>
