<?xml version="1.0" encoding="UTF-8"?>
<!DOCTYPE svg PUBLIC "-//W3C//DTD SVG 1.1//EN" "http://www.w3.org/Graphics/SVG/1.1/DTD/svg11.dtd">
<!-- Creator: CorelDRAW (Versión de evaluación) -->
<svg xmlns="http://www.w3.org/2000/svg" xml:space="preserve" width="76.2mm" height="76.2mm" version="1.1" style="shape-rendering:geometricPrecision; text-rendering:geometricPrecision; image-rendering:optimizeQuality; fill-rule:evenodd; clip-rule:evenodd"
viewBox="0 0 7620 7620"
 xmlns:xlink="http://www.w3.org/1999/xlink"
 xmlns:xodm="http://www.corel.com/coreldraw/odm/2003">
 <defs>
  <style type="text/css">
   <![CDATA[
    .str0 {stroke:#5CC6D0;stroke-width:20;stroke-miterlimit:22.9256}
    .fil0 {fill:#5CC6D0}
    .fil6 {fill:#28B6A9}
    .fil2 {fill:#3E1209}
    .fil5 {fill:#64392C}
    .fil8 {fill:#6B534D}
    .fil1 {fill:#9C9C9C}
    .fil7 {fill:#A05B69}
    .fil4 {fill:#EC7DAE}
    .fil3 {fill:white}
   ]]>
  </style>
 </defs>
 <g id="Capa_x0020_1">
  <metadata id="CorelCorpID_0Corel-Layer"/>
  <ellipse class="fil0 str0" cx="3799.01" cy="3795.73" rx="3706.2" ry="3421.92"/>
  <g id="_1987188997952">
   <path class="fil1" d="M4992.6 4854.68c-23.8,-277.95 359.04,-283.39 386.37,-48.87 31.83,273.08 -366.1,285.75 -386.37,48.87zm-609.53 -683.38c10.43,84.3 11.73,580.45 -4.29,639.12 -63.7,17.15 -877.01,17.46 -943.51,0.12 -10.45,-40.3 -17.34,-516.17 -8.83,-600.2 8.07,-79.81 74.62,-58.91 153.7,-58.74 137.39,0.29 274.82,0.02 412.23,0.02 111.42,0 308.97,-21.25 390.7,19.68zm1333.81 371.7c-87.29,250.7 -448.59,123.85 -372.98,-115.76 26.58,-84.21 124.35,-160.08 240.72,-128 79.68,21.97 172.07,129.42 132.26,243.76zm-1066.28 -20.11c-45.38,-267.79 348.39,-317.44 382.19,-66.96 16.52,122.37 -57.94,206.73 -159.7,221.93 -114.78,17.16 -207.27,-65.12 -222.49,-154.97zm-1641.67 150.91c-45.38,19.32 -130.9,11.67 -186.14,6.02 4.02,55.28 13.13,142.1 -6.63,186.06 -7.7,105.28 -142.28,196.37 -265.5,143.85 -126.34,-53.86 -119.93,-173.07 -116.61,-328.55 -79.1,-1.93 -171.69,10.73 -237.34,-21.78 -56.56,-28.01 -104.92,-79.07 -107.37,-166.65 -6.69,-238.29 249.33,-198.08 342.12,-203.23 7.89,-84.04 -39.57,-341.13 193.52,-342.57 236.03,-1.46 193.36,263.01 199.94,343.71 166.88,2.49 267.16,-9.28 326.66,118.32 61.82,132.54 -36.49,257.41 -142.65,264.82zm2358.19 -462.58c-87.83,237.03 -462.13,104.21 -361.95,-143.47 30.58,-75.59 136.45,-159.11 253.75,-106.62 75.02,33.57 152.3,131.04 108.2,250.09zm-2832.18 -591.6l-28.14 1.83 -12.38 -4.32c5.27,18.86 5.73,11.54 -15.15,5.87l-33.03 18.24c-186.6,39.02 -364.28,210.58 -438.54,354.68 -50.44,97.88 -349.34,1089.47 -386.17,1211.94 -77.59,258.01 -113.05,389.69 8.02,651.51 30.21,65.37 118.74,181.72 169.5,223.2 249.43,203.83 600.84,286.27 915.46,128.22 168.77,-84.78 303.85,-259.2 356.18,-438.53 30.49,-104.52 158.48,-550.12 198.1,-604.79l1277.38 -3.83c100.93,148.58 155.01,695.57 352.46,886.21 46.23,44.65 42.23,59.67 103.45,97.7 55.52,34.49 37,34.75 131.03,79.91 389.67,187.1 922.53,-27.46 1080.02,-437.89 99.33,-258.9 31.46,-439.33 -48.1,-673.85 -71.08,-209.57 -125.9,-418.23 -195.87,-629.75 -106.3,-321.35 -104.6,-490.15 -329.74,-695.18 -69.54,-63.32 -36.81,-36.7 -121.44,-89.3 -88.92,-55.27 -209.23,-92.27 -326.09,-92.14l-113.63 -5.04 -6.38 4.74 -500.12 -1.19 -6.33 0.68 -725.65 -0.08 -1.88 -2.12 -1014.2 2.05 -4.74 -0.1 -163.75 -2.91 -85.74 8.53 -19.75 -0.99 -14.78 6.7z"/>
   <path class="fil2" d="M3815.77 847.24l16.17 -114.03c8.97,-8.7 -5.1,-9.53 38.81,-11.8l127.01 6.07c1.25,-2.17 4.44,2.17 6.66,3.28l-2.94 63.31c4.48,113 -44.45,247.22 -88.9,331.07 -57.34,108.13 -129.11,163.01 -199.9,232.42 -311.94,305.84 -1167.03,67.66 -1523.85,205.37 -380.32,146.79 -494.7,638.26 -224.09,986.47 31.55,40.59 72.39,66.5 121.74,99.02 359.25,236.71 1107.23,-43 1533.71,195.33 138.49,77.39 344.14,293.58 365.64,504.09l-174.44 -0.33c-25.09,-38.03 -41.42,-98.19 -68.29,-144.01 -77.84,-132.66 -207.39,-233.35 -374.24,-268.66 -179.11,-37.89 -634.77,-14.74 -844.4,-14.64 -319.37,0.14 -460.9,-48.89 -643.96,-206.66 -60.38,-52.04 -135.14,-163.95 -172.91,-248.88 -94.78,-213.12 -87.73,-489.31 18.92,-700.66 90.56,-179.49 269.28,-334.39 465.45,-388.7 377.97,-104.66 1060.17,81.61 1371.97,-125.65 113.7,-75.57 261.28,-247.67 251.84,-402.41zm-283.09 308.11c-7.44,6.93 -17.36,18.31 -34.26,27.9 -16.3,9.25 -28.91,12.33 -48.93,18.25 -175.27,136.24 -1025.81,-52.12 -1409.62,131.97 -783.58,375.82 -637.12,1683.77 434.33,1680.77 252.81,-0.7 523.74,-8.89 774.55,0.37 213.22,7.87 414.73,153.37 455.67,333.39 -124.54,-2.64 -99.94,5.79 -108,35.25l1.56 140.39 -188.02 4.33c40.23,1.22 45.22,29.55 68.85,62.05l61.15 11.72c36.54,-57.98 39.01,-105.19 136.02,-87.46l-2.16 -87.33c95.39,0.09 384.91,-14.27 459.29,7.76 1.3,5.45 16.57,106.47 16.61,107.06 3.23,52.08 -29.08,21.87 -71.9,59.87l113.57 2.77c-15.59,-150.68 9.63,-129.48 18.98,-162.5 5.39,-19.01 2.84,-37.29 7.12,-58.79 -5.87,-49.4 -28.83,-35.2 -134.49,-36.03 -30.97,-231.29 -214.4,-453.47 -345.16,-540.23 -233.55,-154.97 -400.37,-157.2 -730.78,-157.2 -147.46,0 -294.92,-0.01 -442.38,0 -233.42,0.01 -470.53,-0.42 -602.45,-279.01 -50.89,-107.46 -65.88,-258.71 -33.71,-384.27 32.99,-128.72 106.28,-204.68 175.87,-266.37 163.73,-145.15 524.93,-105.13 782.02,-105.13 274.96,0 531.93,34.79 774.55,-107.9 81.65,-48.02 197.49,-140.3 242.23,-199.94 59.95,-79.9 116.35,-167.92 155.19,-287.51 29.39,-90.42 83.5,-317.76 14.41,-381.03 -47.77,-13.05 -279.16,-8.98 -325.18,1.79 -41.1,88.39 40.93,318.51 -214.93,515.06z"/>
   <path class="fil2" d="M5191.89 3609.35c116.86,-0.13 237.17,36.87 326.09,92.14 84.63,52.6 51.9,25.98 121.44,89.3 225.14,205.03 223.44,373.83 329.74,695.18 69.97,211.52 124.79,420.18 195.87,629.75 79.56,234.52 147.43,414.95 48.1,673.85 -157.49,410.43 -690.35,624.99 -1080.02,437.89 -94.03,-45.16 -75.51,-45.42 -131.03,-79.91 -61.22,-38.03 -57.22,-53.05 -103.45,-97.7 -197.45,-190.64 -251.53,-737.63 -352.46,-886.21l-1277.38 3.83c-39.62,54.67 -167.61,500.27 -198.1,604.79 -52.33,179.33 -187.41,353.75 -356.18,438.53 -314.62,158.05 -666.03,75.61 -915.46,-128.22 -50.76,-41.48 -139.29,-157.83 -169.5,-223.2 -121.07,-261.82 -85.61,-393.5 -8.02,-651.51 36.83,-122.47 335.73,-1114.06 386.17,-1211.94 74.26,-144.1 251.94,-315.66 438.54,-354.68l33.03 -18.24c0.5,-17.35 -2.78,-12.49 15.15,-5.87 -1.01,-35.47 -2.65,-35.6 18.52,-61.04 17.13,-20.59 30.73,-8.86 19.07,-26.26 -102.46,-15.43 -245.76,68.05 -322.5,115.1 -306.09,187.7 -355.58,483.82 -461.89,835.32 -65.02,214.98 -139.82,448.25 -207.51,667.45 -37.34,120.95 -76.99,209.11 -81.71,350.03 -11.85,353.99 194.4,665.49 510.76,797.39 238.73,99.52 449.08,141.84 706.18,37.77 385.81,-156.16 456.32,-431.76 551.45,-746.34 32.96,-109 67.28,-220.03 101.75,-328.21l1156.19 -0.12c155.2,432.6 160.32,767.67 490.26,986.94 154.53,102.71 345.9,169.91 577.12,139.88 166.25,-21.58 428.72,-137.16 509.22,-221.88 1.75,-2.06 4.04,-4.87 5.31,-6.14l136.72 -152.49c56.61,-52.86 120.92,-229.02 139.17,-327.55 26.15,-140.97 10.16,-292.86 -30.65,-416.58 -78.75,-238.73 -154.48,-479.4 -227.18,-718.94 -75.7,-249.36 -131.12,-491.77 -257.78,-686.34 -113,-173.61 -406.47,-354.73 -601.95,-333.19l-75.85 5.56c46.19,6.09 44.23,41.8 42.77,81.86z"/>
   <path class="fil1" d="M3815.77 847.24c9.44,154.74 -138.14,326.84 -251.84,402.41 -311.8,207.26 -994,20.99 -1371.97,125.65 -196.17,54.31 -374.89,209.21 -465.45,388.7 -106.65,211.35 -113.7,487.54 -18.92,700.66 37.77,84.93 112.53,196.84 172.91,248.88 183.06,157.77 324.59,206.8 643.96,206.66 209.63,-0.1 665.29,-23.25 844.4,14.64 166.85,35.31 296.4,136 374.24,268.66 26.87,45.82 43.2,105.98 68.29,144.01l174.44 0.33c-21.5,-210.51 -227.15,-426.7 -365.64,-504.09 -426.48,-238.33 -1174.46,41.38 -1533.71,-195.33 -49.35,-32.52 -90.19,-58.43 -121.74,-99.02 -270.61,-348.21 -156.23,-839.68 224.09,-986.47 356.82,-137.71 1211.91,100.47 1523.85,-205.37 70.79,-69.41 142.56,-124.29 199.9,-232.42 44.45,-83.85 93.38,-218.07 88.9,-331.07l2.94 -63.31 -172.48 2.45c3.08,25.87 8.85,103.84 -16.17,114.03z"/>
   <polygon class="fil3" points="3520.73,4724.61 4292.64,4726.13 4292.49,4247.61 3524.33,4246 "/>
   <path class="fil2" d="M2724.15 4131.4c26.78,51.8 3.13,162.65 12.07,229.31l7.42 13.75 16.65 3.76c41.51,1.59 84.1,0.74 126.12,0.77 19.76,0.03 41.15,-0.57 60.69,0.02 37.09,1.12 39.12,-3.5 60.2,16.3 91.42,24.51 83.87,174.06 -22.44,189.96 -66.75,20.54 -168.3,-1.96 -240.12,15.3 -23.04,67.02 9.15,183.22 -18.65,246.7 -16.91,106.59 -147.11,105.34 -184.31,40.54 -33.25,-57.89 -0.49,-213.45 -23.67,-288.13 -98.45,-40.41 -326.34,45.66 -334.46,-107.65 -8.89,-167.94 221.18,-79.02 331.72,-117.52 27.91,-76.01 -11.1,-218.31 26.63,-285.95 42.78,-76.68 177.11,-60.25 182.15,42.84zm92.01 734.48l0.82 -162.28c3.13,-30.02 4.38,-19.73 5.81,-23.78l186.14 -6.02c106.16,-7.41 204.47,-132.28 142.65,-264.82 -59.5,-127.6 -159.78,-115.83 -326.66,-118.32 -6.58,-80.7 36.09,-345.17 -199.94,-343.71 -233.09,1.44 -185.63,258.53 -193.52,342.57 -92.79,5.15 -348.81,-35.06 -342.12,203.23 2.45,87.58 50.81,138.64 107.37,166.65 65.65,32.51 158.24,19.85 237.34,21.78 -3.32,155.48 -9.73,274.69 116.61,328.55 123.22,52.52 257.8,-38.57 265.5,-143.85z"/>
   <path class="fil4" d="M2726.09 4847.27c-0.42,-63.88 -18.77,-186.01 10.36,-233.93 28.23,-53.82 185.54,-30.21 248.41,-28.07 106.31,-15.9 113.86,-165.45 22.44,-189.96 -38.82,-6.35 -238.42,-0.43 -247.01,-17.09l-16.65 -3.76c-17.13,4.23 -11.07,5.5 -7.42,-13.75 -26.49,-25.55 -18.51,-184.55 -12.07,-229.31 -5.04,-103.09 -139.37,-119.52 -182.15,-42.84 -37.73,67.64 1.28,209.94 -26.63,285.95 -110.54,38.5 -340.61,-50.42 -331.72,117.52 8.12,153.31 236.01,67.24 334.46,107.65 23.18,74.68 -9.58,230.24 23.67,288.13 37.2,64.8 167.4,66.05 184.31,-40.54z"/>
   <path class="fil2" d="M3524.33 4246l768.16 1.61 0.15 478.52 -771.91 -1.52 3.6 -478.61zm858.74 -74.7c-81.73,-40.93 -279.28,-19.68 -390.7,-19.68 -137.41,0 -274.84,0.27 -412.23,-0.02 -79.08,-0.17 -145.63,-21.07 -153.7,58.74 -8.51,84.03 -1.62,559.9 8.83,600.2 66.5,17.34 879.81,17.03 943.51,-0.12 16.02,-58.67 14.72,-554.82 4.29,-639.12z"/>
   <path class="fil5" d="M4471.67 3557.44c4.98,-41.3 9.7,-22.86 23.4,-29.07 23.08,82.75 -0.62,68.54 -10.06,76.47 -4.32,-7.13 -20.99,16.25 -13.34,-47.4zm-1759.3 10.28c-2.86,31.72 6.02,18.87 -16.99,36.82 -21.88,-31.51 -12.56,-27.1 -14.76,-77.04l34.68 -0.01c-10.16,31.37 -0.59,14.41 -2.93,40.23zm1859.39 40.14l500.12 1.19c7.44,-22.69 -23.55,-4.09 24.44,-26.04l-18.06 21.3 113.63 5.04c1.46,-40.06 3.42,-75.77 -42.77,-81.86l75.85 -5.56c-29.37,-20.59 -894.21,-16.17 -998.37,-7.18 1.87,-25.29 3.51,-53.94 3.17,-79.35 -0.51,-38.2 6.48,-34.45 -12.28,-52.28 -4.28,21.5 -1.73,39.78 -7.12,58.79 -9.35,33.02 -34.57,11.82 -18.98,162.5l-113.57 -2.77c42.82,-38 75.13,-7.79 71.9,-59.87 -0.04,-0.59 -15.31,-101.61 -16.61,-107.06 -74.38,-22.03 -363.9,-7.67 -459.29,-7.76l2.16 87.33c-97.01,-17.73 -99.48,29.48 -136.02,87.46l-61.15 -11.72c-23.63,-32.5 -28.62,-60.83 -68.85,-62.05l188.02 -4.33 -1.56 -140.39c-21.56,20.92 -11.34,90.7 -11.39,128.36l-809.21 -0.12c-60.8,0.19 -191.2,-10.91 -243.81,18.34 11.66,17.4 -1.94,5.67 -19.07,26.26 -21.17,25.44 -19.53,25.57 -18.52,61.04 -17.93,-6.62 -14.65,-11.48 -15.15,5.87l-33.03 18.24 33.03 -18.24c20.88,5.67 20.42,12.99 15.15,-5.87l12.38 4.32c12.54,-34.01 16.42,-58.79 44.52,-76.63 29.15,-18.48 67.8,-35.17 66.94,12.87 -3.06,1.38 -42.68,12.35 -55.85,17.04l-12.69 38.19 -14.78 6.7 14.78 -6.7 19.75 0.99c11.97,-35.85 -10.13,-14.42 29.54,-30.88 55.72,-23.11 4.72,0.67 45.52,-8.09l-10.01 -47.46 29.45 0.02 -8.76 77.88 163.75 2.91c-16.82,-28.61 5.98,-54.24 28.23,-67.9 48.09,-29.52 49.19,-2.48 49.67,-2.21 0.61,41.67 6.11,-0.2 -49.13,50.37 -9.56,8.74 -13.35,12.64 -24.03,19.84l1014.2 -2.05c-30.66,-40.26 -24.29,-38.68 -84.68,-43.35 -20.88,32.77 -17.09,30.72 -42.37,39.32 -33.03,-19.58 -33.92,-40.01 -69.31,-35.82 -50.33,5.95 2.59,24.4 -78.54,38.81 27.95,-90.42 77.05,-77.81 175.26,-77.81 -27.75,-3.46 -39.38,-2.4 -62.26,12.03 97.36,34.78 87.68,-76.99 184.81,46.1 -11.52,13.18 6.4,6.77 -21.03,22.84l725.65 0.08 -47.11 -3.95c4.31,-35.36 13.73,-58.78 -6.69,-77.1 45.49,0 155.77,-4.44 191.91,3.8 29.93,6.83 30.63,23.7 60.03,14.36 18.26,-5.81 92.47,-64.63 135.22,54.65 -65.54,-0.04 -41.44,-67.28 -113,-24.42 -45.22,27.08 20.8,5.29 -39.37,27.91 -23.51,-13.17 -29.9,-43.34 -68.37,-38.53 -49,6.12 -8.89,25.59 -80.62,39.85l51.72 -79.01c-66.02,9.46 -44.51,39.26 -77.39,81.76zm-1375.56 -80.55c162,3.07 216.91,-25.87 263.78,72.72 -66.36,-0.76 -41.81,-39.21 -99.76,-37.25 -65.15,2.2 -9.83,29.84 -94.37,41.53 27.78,-72.45 29.35,-29.26 55.58,-78.78 -103.08,10.73 3.35,66.71 -133.39,79.5 -0.88,-3.14 -1.37,-6.98 -1.88,-9.6 -0.5,-2.6 -1.24,-6.4 -1.85,-9.54l-8.8 -44.3 -17.32 51.24 -42.85 -5.05c-0.19,-0.52 5.2,-39.17 -53.52,-18.87 -47.67,16.49 -16.69,34.37 -73.48,29.51 4.79,-7.26 9.72,-13.55 16.36,-22.72 19.78,-27.36 19.7,-34.95 46.97,-43.89 44.34,-14.55 65.3,4.91 96.15,20.14 23,-37.43 -36.61,-26.26 48.38,-24.64zm1802.85 78.88c79.67,-159.35 234.19,-34.04 149.53,-2.71 -30.32,-15.58 -5.55,-3.73 -18.09,-18.16 -48.98,-56.26 -63.6,3.37 -131.44,20.87zm-788.14 -141.47c4.37,30.04 6.4,44.48 12.75,62.77 41.34,1.3 124.98,-16.95 150.72,20.15 -19.86,19.51 19.57,5.69 -29.91,16.48 -5.12,1.12 -23.69,1.04 -29.86,1.11 -129.16,1.55 -19.29,4.52 -109.64,41.24l5.94 -141.75zm-193.41 138.79c7.54,-30.72 17.11,-53.18 43.02,-66.99 24.99,-13.32 48.43,-15.5 69.95,-0.74 -8.43,61.58 3.31,10.69 -53.71,35.78 -53.4,23.51 19.32,20.47 -59.26,31.95zm909.89 0.8c-2.01,-2.42 -4.36,-5.62 -5.66,-7.56l-13.63 -21.6c-13.16,-22.82 -20.47,-42.93 -49.2,-47.66l192.79 0c-79.97,9.97 -22.95,73.13 -124.3,76.82zm-545.77 -76.82l84.23 0c-17.66,10.72 -7.93,-12.61 -12.95,20.15 -3.34,21.79 0.9,31.67 4.31,51.05l-202.17 6.08c12.1,-12.18 2.68,-24.43 69.58,-25.84 36.96,-0.78 27.94,4.29 63.26,-7.41 11.04,-50.35 0.37,-40.27 -6.26,-44.03zm-522.95 22.49c-18.06,-24.04 -27.54,-22.06 -35.97,-22.49l229.75 0c-44.77,21.93 -15.64,-7.38 -38.41,30.53l-12.99 28.59 -109.23 16.86 -33.15 -53.49zm-968.44 33.56c57.93,-38.43 25.31,-38.72 23.74,-53.61 -0.27,-2.55 -3.32,-2.11 -6.2,-2.44l130.42 0c-46.46,3.67 -58,40.49 -61.88,77.61l-112.1 -3.46 26.02 -18.1zm-162.8 -56.05l118.4 0c-0.08,-0.01 -7.2,-7.53 -28.14,10.22 -11.34,9.61 -3.98,0.1 -14.54,17.5 -38.78,63.88 24.55,43.07 -73.5,51.64l-2.22 -79.36zm73.97 9.16c4.92,-17.49 -1.81,6.44 0,0zm875.52 -93.91l453.83 2.92 -0.88 65.67 -445.75 -1.37 -7.2 -67.22z"/>
   <path class="fil2" d="M5151.39 4050.66c120.32,-54.95 191.43,132.68 78.2,182.38 -117.4,51.54 -217.19,-118.9 -78.2,-182.38zm215.73 160.56c44.1,-119.05 -33.18,-216.52 -108.2,-250.09 -117.3,-52.49 -223.17,31.03 -253.75,106.62 -100.18,247.68 274.12,380.5 361.95,143.47z"/>
   <path class="fil2" d="M5145.48 4738.23c137.24,-52.24 194.95,136.49 81.02,184.56 -124.64,52.58 -202.49,-138.32 -81.02,-184.56zm-152.88 116.45c20.27,236.88 418.2,224.21 386.37,-48.87 -27.33,-234.52 -410.17,-229.08 -386.37,48.87z"/>
   <path class="fil2" d="M4743.45 4512.84c-9.75,-41.41 2.22,-82.17 43.5,-110.61 64.19,-44.24 133.52,0.94 149.48,52.4 44.73,144.24 -165.1,176.54 -192.98,58.21zm-92.85 10.05c15.22,89.85 107.71,172.13 222.49,154.97 101.76,-15.2 176.22,-99.56 159.7,-221.93 -33.8,-250.48 -427.57,-200.83 -382.19,66.96z"/>
   <path class="fil2" d="M5503.47 4391.58c127.13,-40.09 175.82,148.45 62.4,188.05 -124.03,43.29 -204.09,-143.37 -62.4,-188.05zm213.41 151.42c39.81,-114.34 -52.58,-221.79 -132.26,-243.76 -116.37,-32.08 -214.14,43.79 -240.72,128 -75.61,239.61 285.69,366.46 372.98,115.76z"/>
   <path class="fil6" d="M5145.48 4738.23c-121.47,46.24 -43.62,237.14 81.02,184.56 113.93,-48.07 56.22,-236.8 -81.02,-184.56z"/>
   <path class="fil6" d="M4743.45 4512.84c27.88,118.33 237.71,86.03 192.98,-58.21 -15.96,-51.46 -85.29,-96.64 -149.48,-52.4 -41.28,28.44 -53.25,69.2 -43.5,110.61z"/>
   <path class="fil6" d="M5151.39 4050.66c-138.99,63.48 -39.2,233.92 78.2,182.38 113.23,-49.7 42.12,-237.33 -78.2,-182.38z"/>
   <path class="fil6" d="M5503.47 4391.58c-141.69,44.68 -61.63,231.34 62.4,188.05 113.42,-39.6 64.73,-228.14 -62.4,-188.05z"/>
   <polygon class="fil3" points="3684.12,3509.96 4129.87,3511.33 4130.75,3445.66 3676.92,3442.74 "/>
   <path class="fil2" d="M3147.82 3551.95c-30.85,-15.23 -51.81,-34.69 -96.15,-20.14 -27.27,8.94 -27.19,16.53 -46.97,43.89 -6.64,9.17 -11.57,15.46 -16.36,22.72 56.79,4.86 25.81,-13.02 73.48,-29.51 58.72,-20.3 53.33,18.35 53.52,18.87l42.85 5.05 17.32 -51.24 8.8 44.3c0.61,3.14 1.35,6.94 1.85,9.54 0.51,2.62 1,6.46 1.88,9.6 136.74,-12.79 30.31,-68.77 133.39,-79.5 -26.23,49.52 -27.8,6.33 -55.58,78.78 84.54,-11.69 29.22,-39.33 94.37,-41.53 57.95,-1.96 33.4,36.49 99.76,37.25 -46.87,-98.59 -101.78,-69.65 -263.78,-72.72 -84.99,-1.62 -25.38,-12.79 -48.38,24.64z"/>
   <path class="fil2" d="M4565.43 3608.54l6.33 -0.68c32.88,-42.5 11.37,-72.3 77.39,-81.76l-51.72 79.01c71.73,-14.26 31.62,-33.73 80.62,-39.85 38.47,-4.81 44.86,25.36 68.37,38.53 60.17,-22.62 -5.85,-0.83 39.37,-27.91 71.56,-42.86 47.46,24.38 113,24.42 -42.75,-119.28 -116.96,-60.46 -135.22,-54.65 -29.4,9.34 -30.1,-7.53 -60.03,-14.36 -36.14,-8.24 -146.42,-3.8 -191.91,-3.8 20.42,18.32 11,41.74 6.69,77.1l47.11 3.95z"/>
   <path class="fil2" d="M3837.9 3606.34l1.88 2.12c27.43,-16.07 9.51,-9.66 21.03,-22.84 -97.13,-123.09 -87.45,-11.32 -184.81,-46.1 22.88,-14.43 34.51,-15.49 62.26,-12.03 -98.21,0 -147.31,-12.61 -175.26,77.81 81.13,-14.41 28.21,-32.86 78.54,-38.81 35.39,-4.19 36.28,16.24 69.31,35.82 25.28,-8.6 21.49,-6.55 42.37,-39.32 60.39,4.67 54.02,3.09 84.68,43.35z"/>
   <path class="fil2" d="M3891.82 3603.47l109.23 -16.86 12.99 -28.59c22.77,-37.91 -6.36,-8.6 38.41,-30.53l-229.75 0c8.43,0.43 17.91,-1.55 35.97,22.49l33.15 53.49z"/>
   <path class="fil2" d="M2569.47 3613.91l85.74 -8.53 8.76 -77.88 -29.45 -0.02 10.01 47.46c-40.8,8.76 10.2,-15.02 -45.52,8.09 -39.67,16.46 -17.57,-4.97 -29.54,30.88zm-62.67 7.54l28.14 -1.83 14.78 -6.7 12.69 -38.19c13.17,-4.69 52.79,-15.66 55.85,-17.04 0.86,-48.04 -37.79,-31.35 -66.94,-12.87 -28.1,17.84 -31.98,42.62 -44.52,76.63z"/>
   <path class="fil2" d="M4204.97 3606.47c90.35,-36.72 -19.52,-39.69 109.64,-41.24 6.17,-0.07 24.74,0.01 29.86,-1.11 49.48,-10.79 10.05,3.03 29.91,-16.48 -25.74,-37.1 -109.38,-18.85 -150.72,-20.15 -6.35,-18.29 -8.38,-32.73 -12.75,-62.77l-5.94 141.75z"/>
   <path class="fil2" d="M4381.62 3527.49c6.63,3.76 17.3,-6.32 6.26,44.03 -35.32,11.7 -26.3,6.63 -63.26,7.41 -66.9,1.41 -57.48,13.66 -69.58,25.84l202.17 -6.08c-3.41,-19.38 -7.65,-29.26 -4.31,-51.05 5.02,-32.76 -4.71,-9.43 12.95,-20.15l-84.23 0z"/>
   <path class="fil2" d="M4927.39 3604.31c101.35,-3.69 44.33,-66.85 124.3,-76.82l-192.79 0c28.73,4.73 36.04,24.84 49.2,47.66l13.63 21.6c1.3,1.94 3.65,5.14 5.66,7.56z"/>
   <path class="fil2" d="M4999.05 3606.19c67.84,-17.5 82.46,-77.13 131.44,-20.87 12.54,14.43 -12.23,2.58 18.09,18.16 84.66,-31.33 -69.86,-156.64 -149.53,2.71z"/>
   <path class="fil2" d="M2864.21 3601.64l112.1 3.46c3.88,-37.12 15.42,-73.94 61.88,-77.61l-130.42 0c2.88,0.33 5.93,-0.11 6.2,2.44 1.57,14.89 34.19,15.18 -23.74,53.61l-26.02 18.1z"/>
   <path class="fil7" d="M2736.22 4360.71c-3.65,19.25 -9.71,17.98 7.42,13.75l16.65 3.76c8.59,16.66 208.19,10.74 247.01,17.09 -21.08,-19.8 -23.11,-15.18 -60.2,-16.3 -19.54,-0.59 -40.93,0.01 -60.69,-0.02 -42.02,-0.03 -84.61,0.82 -126.12,-0.77l-16.65 -3.76 -7.42 -13.75c-8.94,-66.66 14.71,-177.51 -12.07,-229.31 -6.44,44.76 -14.42,203.76 12.07,229.31z"/>
   <path class="fil8" d="M2726.09 4847.27c27.8,-63.48 -4.39,-179.68 18.65,-246.7 71.82,-17.26 173.37,5.24 240.12,-15.3 -62.87,-2.14 -220.18,-25.75 -248.41,28.07 -29.13,47.92 -10.78,170.05 -10.36,233.93z"/>
   <path class="fil2" d="M2801.4 3536.65c-1.81,6.44 4.92,-17.49 0,0zm-71.75 70.2c98.05,-8.57 34.72,12.24 73.5,-51.64 10.56,-17.4 3.2,-7.89 14.54,-17.5 20.94,-17.75 28.06,-10.23 28.14,-10.22l-118.4 0 2.22 79.36z"/>
   <path class="fil2" d="M4017.5 3603.51c78.58,-11.48 5.86,-8.44 59.26,-31.95 57.02,-25.09 45.28,25.8 53.71,-35.78 -21.52,-14.76 -44.96,-12.58 -69.95,0.74 -25.91,13.81 -35.48,36.27 -43.02,66.99z"/>
   <path class="fil2" d="M2818.96 3608.29l4.74 0.1c10.68,-7.2 14.47,-11.1 24.03,-19.84 55.24,-50.57 49.74,-8.7 49.13,-50.37 -0.48,-0.27 -1.58,-27.31 -49.67,2.21 -22.25,13.66 -45.05,39.29 -28.23,67.9z"/>
   <path class="fil5" d="M2816.16 4865.88c19.76,-43.96 10.65,-130.78 6.63,-186.06 55.24,5.65 140.76,13.3 186.14,-6.02l-186.14 6.02c-1.43,4.05 -2.68,-6.24 -5.81,23.78l-0.82 162.28z"/>
   <path class="fil8" d="M3815.77 847.24c25.02,-10.19 19.25,-88.16 16.17,-114.03l172.48 -2.45 -2.94 63.31 2.94 -63.31c-2.22,-1.11 -5.41,-5.45 -6.66,-3.28l-127.01 -6.07c-43.91,2.27 -29.84,3.1 -38.81,11.8l-16.17 114.03z"/>
   <path class="fil2" d="M4485.01 3604.84c9.44,-7.93 33.14,6.28 10.06,-76.47 -13.7,6.21 -18.42,-12.23 -23.4,29.07 -7.65,63.65 9.02,40.27 13.34,47.4z"/>
   <path class="fil2" d="M2680.62 3527.5c2.2,49.94 -7.12,45.53 14.76,77.04 23.01,-17.95 14.13,-5.1 16.99,-36.82 2.34,-25.82 -7.23,-8.86 2.93,-40.23l-34.68 0.01z"/>
   <path class="fil7" d="M6061.33 6163.16c36.71,-21.99 57.61,-40.26 81.34,-72.56 12.82,-17.46 16.91,-26.55 29.26,-41.43 20.27,-24.41 14.62,-11.13 31.43,-44.64l-136.72 152.49c-1.27,1.27 -3.56,4.08 -5.31,6.14z"/>
   <path class="fil1" d="M3449.49 1201.5c20.02,-5.92 32.63,-9 48.93,-18.25 16.9,-9.59 26.82,-20.97 34.26,-27.9l-83.19 46.15z"/>
   <path class="fil2" d="M5071.88 3609.05l6.38 -4.74 18.06 -21.3c-47.99,21.95 -17,3.35 -24.44,26.04z"/>
  </g>
 </g>
</svg>
