<?xml version="1.0" encoding="UTF-8"?>
<!DOCTYPE svg PUBLIC "-//W3C//DTD SVG 1.1//EN" "http://www.w3.org/Graphics/SVG/1.1/DTD/svg11.dtd">
<!-- Creator: CorelDRAW (Versión de evaluación) -->
<svg xmlns="http://www.w3.org/2000/svg" xml:space="preserve" width="76.2mm" height="76.2mm" version="1.1" style="shape-rendering:geometricPrecision; text-rendering:geometricPrecision; image-rendering:optimizeQuality; fill-rule:evenodd; clip-rule:evenodd"
viewBox="0 0 7620 7620"
 xmlns:xlink="http://www.w3.org/1999/xlink"
 xmlns:xodm="http://www.corel.com/coreldraw/odm/2003">
 <defs>
  <style type="text/css">
   <![CDATA[
    .str0 {stroke:#5CC6D0;stroke-width:20;stroke-miterlimit:22.9256}
    .fil0 {fill:#5CC6D0}
    .fil2 {fill:#310A31}
    .fil3 {fill:#84C66C}
    .fil8 {fill:#9C5C66}
    .fil9 {fill:#AA96AA}
    .fil5 {fill:#C3493B}
    .fil4 {fill:#EB5C4C}
    .fil1 {fill:#F6964D}
    .fil7 {fill:#F7B66E}
    .fil6 {fill:white}
   ]]>
  </style>
 </defs>
 <g id="Capa_x0020_1">
  <metadata id="CorelCorpID_0Corel-Layer"/>
  <ellipse class="fil0 str0" cx="3799.01" cy="3795.73" rx="3706.2" ry="3421.92"/>
  <g id="_1987182896656">
   <path class="fil1" d="M4880.98 3931l7.6 -26.96c76.67,0.86 3.26,68.34 79.36,103.54 14.22,6.58 13.37,5.9 33.05,9.8l5.07 17.88 25.09 5.44c-1.64,2.57 -3.31,3.35 -4.43,6.6l-25.02 14.21c-124.17,37.95 -53.83,48.43 -110.46,111.46 -15.85,-26.33 -21.96,-61.12 -39.84,-80.75 -19.03,-20.89 -56.87,-28.42 -80.76,-41.98 44.62,-46.31 64.04,-4.53 96.98,-76.05 10.48,-22.73 13.17,-21.55 13.36,-43.19zm40.79 -327.94c-419.42,0 -407.34,-319.4 -8.02,-322 397.77,-2.59 407.38,322 8.02,322zm-1734.87 -138.54c-17.69,61.21 -50.13,82.84 -122.92,110.25 -62.43,23.52 -131.15,30.77 -202.94,27.92 -113.59,-4.49 -310.27,-62.41 -273.36,-188.59 41.72,-142.65 439.57,-192.91 577.73,-39.89 17.02,18.85 27.88,40.98 26.89,67.04 -1.1,29.03 -3.44,16.49 -5.4,23.27zm-1785.36 -33.19l20.65 -8.07c5.83,-5.99 -21.64,-16.7 22.57,-8.33 5.98,-10.69 -17.4,-15.86 15.22,-8.81 9.59,-9.91 -11.08,-2.83 13.33,-12.27 23.52,-9.09 6.3,-3.98 27.1,-2.44 30.31,-3.42 65.58,-23.24 99.52,-36.85 57.15,-22.91 67.2,-72.27 105.12,-168.21l31.16 -75.49c0.9,-1.62 1.87,-3.56 2.84,-5.12l15.7 -18.97 62.72 123.27c18.06,36.69 31.51,106.28 57,127.65 28.22,23.66 205.18,82.55 253.47,111.5 -33.26,24.77 -86.55,39.85 -125.66,57.13 -24,10.61 -118.33,46.89 -131.57,59.07 -27.02,24.86 -82.07,214.8 -115.96,256.13 -10.09,-9.94 -2.38,1.59 -12.34,-17.19l-33.07 -74.12c-58.83,-18.46 -8.15,-142.93 -147.27,-190.75l-76.69 -39.53c-27.81,5.77 -14.31,7.44 -17.67,-7.35 -27.17,-1.41 -56.84,-2.37 -74.69,-24.07l-7.43 -12.53c-22.51,-5.98 -23.58,23.45 -15.76,-17.68l31.71 -6.97zm2320.58 -41.94l8.4 8.83c30.62,-3.92 21.3,16.22 24.42,50.1 5.97,64.46 32.19,30.13 24.61,85.39 59.72,90.19 214.62,65.46 253.39,-37.14 -11.63,-193.62 130.55,-125.39 144.99,-83.27 10.66,31.09 -1.94,72.32 -5.77,105.84 -0.9,-1.92 -3.43,-6.45 -4.01,-4.94l-9.66 -9.87c-27.22,114.22 -136.3,214.76 -282.36,205.3 -139.15,-9.02 -233.92,-117.35 -251.37,-242.43 -4.23,-16.56 4,1.13 -13.13,-8.96 1.54,-92.94 23.3,-56.69 48.82,-82.89 0.68,-0.7 1.29,-4.46 2.14,-6.85l51.6 -3.42 7.93 24.31zm2141.12 44.12l-40.97 118.27c-52.69,-2.16 -62.18,-89.99 -62.89,-91.81 -16.4,-42.15 -32.48,-78.36 -47.48,-112.1 -6.93,-15.6 0.96,-9.8 -15.4,-24.27 -12.45,-11.01 -40.21,-14.35 -90,-34.59 -23.71,-9.65 -38.23,-18.42 -56.78,-25.69 -31.71,-12.42 -47.06,-2.38 -52.62,-33.18 3.43,-21.31 15.3,-15.51 41.05,-26.42 200.97,-85.21 160.95,-44.19 215.64,-173.32 7.61,-18 14.65,-37.08 22.01,-54.6l31.2 -54.83c40.37,34.19 61.03,172.89 99.15,207.9 14.57,13.37 179.32,79.64 212.32,93.38 -21.57,22.01 -119.93,57.56 -158.96,74.57 -36.07,15.72 -51.38,13.02 -66.92,46.65 -11.57,25.03 -30.43,63.77 -29.35,90.04zm-734.3 -381.09c-41.31,238.53 -350.04,291.74 -480.65,120.82 -28.2,-36.9 -93.15,-152.15 -45.35,-210.72 21.96,-26.89 76.01,-25.53 95.11,0.9 18.69,25.86 11.98,77.39 28.91,108.28 26.95,49.17 97.52,102.18 181.24,73.07 87.01,-30.25 82.8,-70.33 106.64,-158.69 18.27,-67.71 138.2,-72.86 114.1,66.34zm-2469.46 -15.26c-15.45,-121.39 100.79,-115.55 116.57,-51.68 21.59,87.4 28.02,139.36 111.94,161.5 189.68,50.03 185.51,-163.51 214.6,-189.37 58.49,-52 170.97,25.65 39.15,215.01 -30.64,44.01 -96.62,88.76 -174.17,98.92 -164.54,21.55 -290.71,-97.68 -308.09,-234.38zm2848.21 -756.8l21.59 26.65c30.8,54.04 25.93,26.58 66.76,58.6 -5.98,5.74 -4.08,4.74 -13.89,11.2 -7.95,5.21 -5.79,3.22 -15.28,8.24 -18.29,9.69 -9.13,-0.57 -23.55,14.41 -12.18,12.65 -20.41,42.05 -27.55,56.79 -26.63,-26.64 -15.28,-42.12 -36.11,-60.86 -10.02,-9.02 -45.2,-21.11 -58.28,-29.78 75.96,-43.21 52.45,-2.63 86.31,-85.25zm-2088.89 -254.45l11.57 7.59c1.68,0.99 3.71,2.39 5.56,3.41 1.74,0.95 3.56,2.08 5.36,2.97 1.72,0.86 3.58,1.73 5.33,2.49 9.97,4.34 11.64,2.91 22.49,7.18 11.82,4.66 14.81,5.89 21.37,14.3l8.8 18.48c-45.37,27.14 -0.18,26.06 -68.37,32.28 -13.1,7.72 -25.03,45.32 -32.48,56.36 -9.51,-17.28 -18.28,-47.72 -30.97,-60.06 -19.29,-18.77 -34.31,-8.77 -56.39,-35.96 70.69,-29.15 53.5,-13.14 87.98,-83.64l19.75 34.6zm245.2 -525.15c-556.53,26.93 -989.35,151.92 -1460.15,405.79 -372.23,200.72 -744.38,560.77 -937.06,925.44 -118.64,224.54 -231.25,593.55 -201.46,848.56 9.14,78.29 44.69,141.17 78.3,189.1 160.66,229.22 595.12,376.56 885.73,449.27 1030.28,257.78 2806.22,273.03 3814.89,-69.76 207.04,-70.35 537.87,-203.11 658.27,-402.1 140.68,-232.53 28.48,-624.94 -68.16,-864.89 -189.67,-470.93 -600.15,-850.69 -1037.04,-1091.31 -475.62,-261.93 -1076.86,-421.87 -1733.32,-390.1z"/>
   <path class="fil2" d="M6205.28 5427.71c-636.96,301.92 -1675.89,383.78 -2390.06,383.57 -571.39,-0.17 -1156.27,-45.23 -1689.42,-160.72 -294.05,-63.7 -784.06,-198.91 -981.86,-415.31 -101.35,-110.89 -101.41,-180.06 -92.1,-369.95 26.51,17.04 27.46,32.27 52.61,58.46 35.94,37.39 139.5,110.42 184.83,135.55 103.02,57.12 175.67,92.7 291.45,136.22 1129.44,424.46 3709.87,457.27 4765.65,-138.5 170.83,-96.4 200.84,-170.03 232.37,-190.57 12.96,187.3 2.65,269.9 -95.25,373.41 -60.03,63.46 -176.67,139.71 -278.22,187.84zm-2942.02 -366.5c4.95,-5.82 421.36,-215.09 593.86,-104.44 28.62,18.35 113.65,92.26 131.33,115.55 -244.58,7.08 -482.25,-3.54 -725.19,-11.11zm1085.36 -2.22c12.25,-25.03 63.91,-67.23 91.06,-84.85 113.87,-73.89 286.89,-13.39 402.6,39.54 -32,20.04 -427,45.2 -493.66,45.31zm-2225.15 -148.98c99.98,-29.49 293.84,-92.07 386.08,-2.4 14.84,14.43 58.19,74.68 65.15,79.39 -61.77,6.44 -379.58,-58.73 -451.23,-76.99zm3050.99 289.99c24.38,-0.27 136.96,41.73 180.33,52.94 -96.52,36.5 -427.15,71.33 -547.48,83.38 -658.33,65.9 -1133.35,62.97 -1801.36,17.82 -463.92,-31.35 -1131.98,-145.71 -1547.31,-342.55 -98.94,-46.88 -334.83,-182.19 -333.4,-290.38 -16.67,-18.25 -13.01,-37.87 -20.8,-60.22 51.71,8.85 79.75,17.31 113.96,41.74 30.59,21.85 57.2,37.26 89.51,55.65 63.13,35.92 132.39,68.55 200.71,96.4 365.56,149 810.99,229.91 1208.02,280.06 48.38,6.11 67.52,21.64 117.39,28.6 52.89,7.38 90.72,-0.1 141.76,0.14 91.05,0.4 190.58,13.35 282.61,18.57 564.47,32.11 1135.81,15.63 1695.59,-52.05 71.75,-8.68 70.12,-10.85 122.68,17.7l77.82 37.33c20.72,11.66 7.23,1.36 19.97,14.87zm-3622.04 -533.45c29.45,18.83 89.89,81.04 99.2,113.66 -8.21,-7.73 -118.73,-48.59 -144.47,-60.53 -37.65,-17.43 -112.65,-46.34 -133.08,-70.56 66.66,-18.82 125.51,-16.37 178.35,17.43zm4953.22 56.47c1.36,62.89 -96.93,144.12 -136.88,173.22 -69.81,50.83 -114.54,75.15 -191.7,112.87 -73.24,35.8 -367.45,155.46 -449.25,158.16l-49.49 14.78c15.02,-12.15 36.27,-28.48 54.79,-38.18 10.48,-9.04 37.86,-30.77 50.93,-38.15 0,-11.51 -2.67,-9.42 8.34,-5.79 0.04,-12.09 -2.41,-8.31 11.24,-6.56 -4.54,-14.39 -6.76,-11.74 7.59,-7.01 -4.66,-14.76 -6.79,-11.72 8.13,-7.38 -3.86,-13.52 -6.23,-11.05 7.32,-7.19 -4.34,-14.76 -6.74,-11.84 8.18,-7.8 -3.44,-13.48 -6.29,-11.55 6.88,-7.49 -4.9,-14.8 -6.51,-10.96 9.03,-7.47 -2.75,-12.7 -4.97,-9.92 7.89,-7.06 11.64,-33.23 40.84,-54.71 65.1,-87.07 34.31,-45.79 31.71,-37.72 93.46,-59.96 141.42,-50.9 285.26,-114.92 404.19,-198.05 99.12,-69.29 99.22,-92.95 153.23,-137.72 -8.96,55.61 -41.44,86.08 -52.65,122.3 -6.36,20.53 -3.96,28.25 -16.33,41.55zm-435 19.16c11.13,-30.83 83.96,-176.18 105.72,-190.86 48.17,-32.47 189.04,-39.25 260.2,-29.67 -31.68,58.31 -282.25,195.14 -365.92,220.53zm48.17 -406.22c-62.18,201.27 -250.12,549.39 -406.45,667.14 -63.92,48.15 -118.61,100.18 -224.7,125.87 -228.11,55.23 -634.56,-254.86 -831.94,-391.08 -35.02,-24.17 -69.89,-48.75 -98.85,-75.1 -20.81,-10.97 -32.77,-24.35 -53.12,-41.76 -27.3,-23.33 -4.23,-18.09 39.02,-18.92 240.79,-5.1 569.49,-57.26 803.83,-102.81 123.82,-24.08 247.5,-51.78 365.54,-83.27 78.02,-20.82 275.89,-77.94 333.12,-112.14l47.93 -10.91 9.09 -12.01 43.9 -12.46 -27.37 67.45zm109.38 66.83c13.77,-47.61 35.42,-95.9 51.03,-146.04 27.19,-87.43 13.3,-67.93 84.03,-113.66 50.87,-32.9 125.75,-88.6 165.82,-132.01l35.2 -41.42c10.92,-10.64 1.35,-3.14 13.5,-10.78 68.39,64.25 116.04,164.08 70.19,293.04 -61.38,172.65 -185.53,136.48 -419.77,150.87zm-1684.75 404.85c-25.93,14.41 -29,5.77 -81.06,21.12 -151.97,44.8 -182.35,168.43 -290.59,174.27 -147.95,8 -159.98,-151.62 -357.58,-194.53 -283.81,-61.63 -648.31,191.59 -858.88,230.85 -276.14,51.5 -262.09,-208.49 -451.97,-278.14 -235.25,-86.3 -439.79,99.65 -633.24,30.26 -101.02,-36.25 -124.47,-114.56 -192.02,-181.79 -147.76,-147.06 -291.97,-84.54 -429.85,-58.11 -209.7,40.22 -85.08,-217.31 -241.09,-301.31 -55.24,-29.76 -133.46,-6.61 -165.03,-26.33 -35.96,-22.46 -39.77,-88.42 -23.59,-138.55 34.79,-107.8 126.37,-116.3 251.46,-118.45 43.39,78.78 198.18,179.51 306.4,242.07 644.73,372.74 2060.67,447.47 2820.33,414.24 36.94,-1.62 92.09,-11.49 118.66,5.45l228.05 178.95zm-879.44 -3306.88c656.46,-31.77 1257.7,128.17 1733.32,390.1 436.89,240.62 847.37,620.38 1037.04,1091.31 96.64,239.95 208.84,632.36 68.16,864.89 -120.4,198.99 -451.23,331.75 -658.27,402.1 -1008.67,342.79 -2784.61,327.54 -3814.89,69.76 -290.61,-72.71 -725.07,-220.05 -885.73,-449.27 -33.61,-47.93 -69.16,-110.81 -78.3,-189.1 -29.79,-255.01 82.82,-624.02 201.46,-848.56 192.68,-364.67 564.83,-724.72 937.06,-925.44 470.8,-253.87 903.62,-378.86 1460.15,-405.79zm-2695.71 2306.23l15 40.72c-12.35,1.58 -27.96,5.35 -47.58,9.4 -225.79,1.1 -325.63,340.68 -184.27,457.96 69.53,57.69 164.29,24.04 200.72,50.28 22.13,15.27 16.77,19.26 22.56,55.33 36.36,226.46 13.64,162.35 -28.73,288.38 -12.26,36.44 -17.85,80.42 -18.37,121.41 -2.89,224.12 -17.34,308.35 99.87,460.3 66.5,86.22 197.71,174.21 326.37,238.23 1081.87,538.35 3685.13,531.12 4833.85,40.92 185.59,-79.19 383.98,-193.09 473.29,-366.23 59.28,-114.93 55.58,-410.05 19.39,-506.05 -54.15,-143.62 -36.13,-27.8 -37.77,-231.58 72,-41.83 144.95,-173.81 147.23,-307.22 2.06,-121.2 -60.93,-247.66 -145.35,-301.8 7.19,-40.48 30.31,-81.71 39.83,-133.91 9.32,-51.16 7.76,-106.47 5.78,-159.71 -14.46,-390 -141.72,-685.99 -344.04,-996.49 -23.62,-36.24 -45.42,-65.77 -70.36,-97.55 -74.18,-94.51 -150.29,-185.4 -236.16,-267.6 -53.89,-51.58 -119.95,-104.88 -182.36,-153.53 -125.65,-97.94 -247.76,-184.81 -402.74,-269.06 -491.31,-267.09 -1026.96,-397.51 -1608.71,-406.07 -658.06,-9.68 -1413.09,192.99 -1940.46,578.38l-190.71 145.04c-208.47,169.88 -405.69,403.28 -535.45,639.79 -79.87,145.6 -145.98,303.77 -189.31,482.22 -54.11,222.88 -65.45,375.81 -21.52,588.44z"/>
   <path class="fil1" d="M6578.75 4866.46c-31.53,20.54 -61.54,94.17 -232.37,190.57 -1055.78,595.77 -3636.21,562.96 -4765.65,138.5 -115.78,-43.52 -188.43,-79.1 -291.45,-136.22 -45.33,-25.13 -148.89,-98.16 -184.83,-135.55 -25.15,-26.19 -26.1,-41.42 -52.61,-58.46 -9.31,189.89 -9.25,259.06 92.1,369.95 197.8,216.4 687.81,351.61 981.86,415.31 533.15,115.49 1118.03,160.55 1689.42,160.72 714.17,0.21 1753.1,-81.65 2390.06,-383.57 101.55,-48.13 218.19,-124.38 278.22,-187.84 97.9,-103.51 108.21,-186.11 95.25,-373.41z"/>
   <path class="fil3" d="M4543.44 4807.64l-228.05 -178.95c-26.57,-16.94 -81.72,-7.07 -118.66,-5.45 -759.66,33.23 -2175.6,-41.5 -2820.33,-414.24 -108.22,-62.56 -263.01,-163.29 -306.4,-242.07 -125.09,2.15 -216.67,10.65 -251.46,118.45 -16.18,50.13 -12.37,116.09 23.59,138.55 31.57,19.72 109.79,-3.43 165.03,26.33 156.01,84 31.39,341.53 241.09,301.31 137.88,-26.43 282.09,-88.95 429.85,58.11 67.55,67.23 91,145.54 192.02,181.79 193.45,69.39 397.99,-116.56 633.24,-30.26 189.88,69.65 175.83,329.64 451.97,278.14 210.57,-39.26 575.07,-292.48 858.88,-230.85 197.6,42.91 209.63,202.53 357.58,194.53 108.24,-5.84 138.62,-129.47 290.59,-174.27 52.06,-15.35 55.13,-6.71 81.06,-21.12z"/>
   <path class="fil1" d="M6045.26 4303.89c-57.23,34.2 -255.1,91.32 -333.12,112.14 -118.04,31.49 -241.72,59.19 -365.54,83.27 -234.34,45.55 -563.04,97.71 -803.83,102.81l-45.2 10.11c9.78,5.99 21.51,17.32 30.12,25.25 9.62,8.87 8.19,7.56 16.27,14.41l12.91 10.91c28.96,26.35 63.83,50.93 98.85,75.1 197.38,136.22 603.83,446.31 831.94,391.08 106.09,-25.69 160.78,-77.72 224.7,-125.87 156.33,-117.75 344.27,-465.87 406.45,-667.14l-21.77 29.03c2.04,-20.61 0.5,-24.96 7.88,-45.43 8.86,-24.6 2.12,2.97 8.62,-15.73l-11.26 -22.86 -9.09 12.01 13.96 3.36c-0.79,0.54 -20.59,15.27 -27.36,17.03 -49.07,12.72 -26.57,0.48 -34.53,-9.48z"/>
   <path class="fil4" d="M1125.24 4721.21c-1.43,108.19 234.46,243.5 333.4,290.38 415.33,196.84 1083.39,311.2 1547.31,342.55 668.01,45.15 1143.03,48.08 1801.36,-17.82 120.33,-12.05 450.96,-46.88 547.48,-83.38 -43.37,-11.21 -155.95,-53.21 -180.33,-52.94 -47.79,-13.66 -205.53,19.5 -269.05,27.85 -233.04,30.67 -599.15,55.62 -830.72,58.67 -658.15,8.64 -1037.94,-7.4 -1670.89,-103.57 -308.84,-46.94 -872.58,-183.91 -1122.75,-359.55 -53.82,-37.78 -114.49,-79.36 -157.74,-127.36l1.93 25.17z"/>
   <path class="fil5" d="M1125.24 4721.21l-1.93 -25.17c43.25,48 103.92,89.58 157.74,127.36 250.17,175.64 813.91,312.61 1122.75,359.55 632.95,96.17 1012.74,112.21 1670.89,103.57 231.57,-3.05 597.68,-28 830.72,-58.67 63.52,-8.35 221.26,-41.51 269.05,-27.85 -12.74,-13.51 0.75,-3.21 -19.97,-14.87l-77.82 -37.33c-52.56,-28.55 -50.93,-26.38 -122.68,-17.7 -559.78,67.68 -1131.12,84.16 -1695.59,52.05 -92.03,-5.22 -191.56,-18.17 -282.61,-18.57 -51.04,-0.24 -88.87,7.24 -141.76,-0.14 -49.87,-6.96 -69.01,-22.49 -117.39,-28.6 -397.03,-50.15 -842.46,-131.06 -1208.02,-280.06 -68.32,-27.85 -137.58,-60.48 -200.71,-96.4 -32.31,-18.39 -58.92,-33.8 -89.51,-55.65 -34.21,-24.43 -62.25,-32.89 -113.96,-41.74 7.79,22.35 4.13,41.97 20.8,60.22z"/>
   <path class="fil4" d="M4921.77 3603.06c399.36,0 389.75,-324.59 -8.02,-322 -399.32,2.6 -411.4,322 8.02,322z"/>
   <path class="fil4" d="M3186.9 3464.52c1.96,-6.78 4.3,5.76 5.4,-23.27 0.99,-26.06 -9.87,-48.19 -26.89,-67.04 -138.16,-153.02 -536.01,-102.76 -577.73,39.89 -36.91,126.18 159.77,184.1 273.36,188.59 71.79,2.85 140.51,-4.4 202.94,-27.92 72.79,-27.41 105.23,-49.04 122.92,-110.25z"/>
   <path class="fil6" d="M1574.86 3452c18.8,-12.48 114.59,-51.58 122.51,-59.86 18.29,-19.14 32.84,-90 57.38,-118.15 23.24,29.82 38.87,98.75 57.6,117.73 23.86,24.16 72.97,22.72 113.01,57.54 -35.9,35.12 -96.43,38.33 -115.91,62 -20.99,25.51 -31.22,85.31 -54.7,113.08 -26.96,-28.12 -35.11,-98.55 -63.13,-119.95 -5.51,-4.22 -101.23,-46.6 -116.76,-52.39zm-74.45 -60.59c-9.84,10.46 4.35,5.05 -12.05,11.37 -19.59,7.55 -4.41,4.49 -28.38,3.34 -0.82,15.36 11.97,13.28 -15.22,8.81 5.89,17.61 -10.69,9.45 -22.57,8.33 6.9,17.75 -10.98,9.31 -20.65,8.07 -1.02,1.67 -2.86,2.22 -3.31,4.86 -1.65,9.82 -2.24,3.34 -5.91,9.04 -8.33,12.93 -2.66,2.55 -6.73,10.75 21.53,1.97 24.49,6.3 42.45,14.36l34.81 18.32c1.12,0.79 3.27,2.57 4.86,3.92l17.67 7.35c20.82,0.96 141.38,50.23 154.9,63.82 12.51,12.56 64.69,142.28 69.06,166.46l33.07 74.12c9.96,18.78 2.25,7.25 12.34,17.19 33.89,-41.33 88.94,-231.27 115.96,-256.13 13.24,-12.18 107.57,-48.46 131.57,-59.07 39.11,-17.28 92.4,-32.36 125.66,-57.13 -48.29,-28.95 -225.25,-87.84 -253.47,-111.5 -25.49,-21.37 -38.94,-90.96 -57,-127.65l-62.72 -123.27 -15.7 18.97c-0.97,1.56 -1.94,3.5 -2.84,5.12l-31.16 75.49c-37.92,95.94 -47.97,145.3 -105.12,168.21 -33.94,13.61 -69.21,33.43 -99.52,36.85z"/>
   <path class="fil3" d="M6228.19 4402.79c234.24,-14.39 358.39,21.78 419.77,-150.87 45.85,-128.96 -1.8,-228.79 -70.19,-293.04 -12.15,7.64 -2.58,0.14 -13.5,10.78l-35.2 41.42c-40.07,43.41 -114.95,99.11 -165.82,132.01 -70.73,45.73 -56.84,26.23 -84.03,113.66 -15.61,50.14 -37.26,98.43 -51.03,146.04z"/>
   <path class="fil6" d="M5807 3117.56l22.92 35.09c17.71,41.99 16.79,41.39 93.63,65.88 -11.3,15.56 1.66,2.16 -12.35,13.89 -41.17,34.51 -55.46,3.21 -80.33,64.76l-23.87 39.31c-20.48,-24.13 -23.88,-51.64 -39.66,-68.91 -16.45,-18.01 -51.86,-25.89 -75.1,-37.95 15.55,-20.11 3.38,-10.07 33.35,-22.76 85.69,-36.29 32.04,-41.41 81.41,-89.31zm-309.9 112.58c31.46,8.61 203.35,82.51 213.92,93.64l95.98 207.07c30.16,-36.53 14.28,-60.89 56.24,-97.34 -1.08,-26.27 17.78,-65.01 29.35,-90.04 15.54,-33.63 30.85,-30.93 66.92,-46.65 39.03,-17.01 137.39,-52.56 158.96,-74.57 -33,-13.74 -197.75,-80.01 -212.32,-93.38 -38.12,-35.01 -58.78,-173.71 -99.15,-207.9l-31.2 54.83c-7.36,17.52 -14.4,36.6 -22.01,54.6 -54.69,129.13 -14.67,88.11 -215.64,173.32 -25.75,10.91 -37.62,5.11 -41.05,26.42z"/>
   <path class="fil2" d="M5128.94 3052.42c24.1,-139.2 -95.83,-134.05 -114.1,-66.34 -23.84,88.36 -19.63,128.44 -106.64,158.69 -83.72,29.11 -154.29,-23.9 -181.24,-73.07 -16.93,-30.89 -10.22,-82.42 -28.91,-108.28 -19.1,-26.43 -73.15,-27.79 -95.11,-0.9 -47.8,58.57 17.15,173.82 45.35,210.72 130.61,170.92 439.34,117.71 480.65,-120.82z"/>
   <path class="fil2" d="M3624.76 3467.2c17.45,125.08 112.22,233.41 251.37,242.43 146.06,9.46 255.14,-91.08 282.36,-205.3 23.36,-55.44 14.41,-128.83 -53.16,-127.37 -69.19,1.5 -55.21,70.3 -72.39,119.61 -38.77,102.6 -193.67,127.33 -253.39,37.14 -37.89,-56.82 -23.46,-93.82 -49.03,-135.49l-8.4 -8.83c-64.7,-33.3 -109.76,5.84 -97.36,77.81z"/>
   <path class="fil2" d="M2659.48 3037.16c17.38,136.7 143.55,255.93 308.09,234.38 77.55,-10.16 143.53,-54.91 174.17,-98.92 131.82,-189.36 19.34,-267.01 -39.15,-215.01 -29.09,25.86 -24.92,239.4 -214.6,189.37 -83.92,-22.14 -90.35,-74.1 -111.94,-161.5 -15.78,-63.87 -132.02,-69.71 -116.57,51.68z"/>
   <path class="fil5" d="M3263.26 5061.21c242.94,7.57 480.61,18.19 725.19,11.11 -17.68,-23.29 -102.71,-97.2 -131.33,-115.55 -172.5,-110.65 -588.91,98.62 -593.86,104.44z"/>
   <path class="fil4" d="M5858.64 5041.97c2.34,13.14 4.94,10.76 -7.89,7.06 2.76,14.31 5.28,11.28 -9.03,7.47 4.47,13.88 7.05,11.66 -6.88,7.49 3.57,14.38 6.17,11.65 -8.18,7.8 4.27,14.07 6.69,11.66 -7.32,7.19 3.89,14.79 6.43,12.14 -8.13,7.38 4.96,12.35 6.02,8.79 -7.59,7.01 5.49,15.28 5.88,9.79 -11.24,6.56l-8.34 5.79c-13.07,7.38 -40.45,29.11 -50.93,38.15 -1.52,1.44 -4.33,1.46 -4.65,4.22 -0.38,3.3 -5.66,6.83 -5.81,8.09 -1.87,15.06 -17.09,-9.14 5.16,11.09 81.8,-2.7 376.01,-122.36 449.25,-158.16 77.16,-37.72 121.89,-62.04 191.7,-112.87 39.95,-29.1 138.24,-110.33 136.88,-173.22l6.29 -30.9 -22.91 19.6c-41.02,42.27 -64.85,64.4 -115.88,97.39 -47.62,30.78 -108.44,67.31 -158.62,91.97 -115.12,56.56 -318.75,120.45 -355.88,140.89z"/>
   <path class="fil5" d="M5858.64 5041.97c-12.86,-2.86 -10.64,-5.64 -7.89,7.06 -15.54,-3.49 -13.93,-7.33 -9.03,7.47 -13.17,-4.06 -10.32,-5.99 -6.88,7.49 -14.92,-4.04 -12.52,-6.96 -8.18,7.8 -13.55,-3.86 -11.18,-6.33 -7.32,7.19 -14.92,-4.34 -12.79,-7.38 -8.13,7.38 -14.35,-4.73 -12.13,-7.38 -7.59,7.01 -13.65,-1.75 -11.2,-5.53 -11.24,6.56 -11.01,-3.63 -8.34,-5.72 -8.34,5.79l8.34 -5.79c17.12,3.23 16.73,8.72 11.24,-6.56 13.61,1.78 12.55,5.34 7.59,-7.01 14.56,4.76 12.02,7.41 8.13,-7.38 14.01,4.47 11.59,6.88 7.32,-7.19 14.35,3.85 11.75,6.58 8.18,-7.8 13.93,4.17 11.35,6.39 6.88,-7.49 14.31,3.81 11.79,6.84 9.03,-7.47 12.83,3.7 10.23,6.08 7.89,-7.06 37.13,-20.44 240.76,-84.33 355.88,-140.89 50.18,-24.66 111,-61.19 158.62,-91.97 51.03,-32.99 74.86,-55.12 115.88,-97.39l22.91 -19.6 -6.29 30.9c12.37,-13.3 9.97,-21.02 16.33,-41.55 11.21,-36.22 43.69,-66.69 52.65,-122.3 -54.01,44.77 -54.11,68.43 -153.23,137.72 -118.93,83.13 -262.77,147.15 -404.19,198.05 -61.75,22.24 -59.15,14.17 -93.46,59.96 -24.26,32.36 -53.46,53.84 -65.1,87.07z"/>
   <path class="fil1" d="M1574.86 3452c15.53,5.79 111.25,48.17 116.76,52.39 28.02,21.4 36.17,91.83 63.13,119.95 23.48,-27.77 33.71,-87.57 54.7,-113.08 19.48,-23.67 80.01,-26.88 115.91,-62 -40.04,-34.82 -89.15,-33.38 -113.01,-57.54 -18.73,-18.98 -34.36,-87.91 -57.6,-117.73 -24.54,28.15 -39.09,99.01 -57.38,118.15 -7.92,8.28 -103.71,47.38 -122.51,59.86z"/>
   <path class="fil5" d="M4348.62 5058.99c66.66,-0.11 461.66,-25.27 493.66,-45.31 -115.71,-52.93 -288.73,-113.43 -402.6,-39.54 -27.15,17.62 -78.81,59.82 -91.06,84.85z"/>
   <path class="fil5" d="M6070.64 4742.18c83.67,-25.39 334.24,-162.22 365.92,-220.53 -71.16,-9.58 -212.03,-2.8 -260.2,29.67 -21.76,14.68 -94.59,160.03 -105.72,190.86z"/>
   <path class="fil5" d="M2123.47 4910.01c71.65,18.26 389.46,83.43 451.23,76.99 -6.96,-4.71 -50.31,-64.96 -65.15,-79.39 -92.24,-89.67 -286.1,-27.09 -386.08,2.4z"/>
   <path class="fil6" d="M5001.7 4061.51c5.6,-10.87 5.34,-14.4 5.71,-16.18 0.29,-1.4 -0.82,-7.59 -1.35,-10.07 -27.54,-1.21 -64.48,-14.43 -78.93,-34.47 -16.83,-23.33 -14.77,-71.41 -46.15,-69.79 -0.19,21.64 -2.88,20.46 -13.36,43.19 -32.94,71.52 -52.36,29.74 -96.98,76.05 23.89,13.56 61.73,21.09 80.76,41.98 17.88,19.63 23.99,54.42 39.84,80.75 56.63,-63.03 -13.71,-73.51 110.46,-111.46z"/>
   <path class="fil1" d="M5807 3117.56c-49.37,47.9 4.28,53.02 -81.41,89.31 -29.97,12.69 -17.8,2.65 -33.35,22.76 23.24,12.06 58.65,19.94 75.1,37.95 15.78,17.27 19.18,44.78 39.66,68.91l23.87 -39.31c24.87,-61.55 39.16,-30.25 80.33,-64.76 14.01,-11.73 1.05,1.67 12.35,-13.89 -76.84,-24.49 -75.92,-23.89 -93.63,-65.88l-22.92 -35.09z"/>
   <path class="fil5" d="M1374.07 4649.12c20.43,24.22 95.43,53.13 133.08,70.56 25.74,11.94 136.26,52.8 144.47,60.53 -9.31,-32.62 -69.75,-94.83 -99.2,-113.66 -52.84,-33.8 -111.69,-36.25 -178.35,-17.43z"/>
   <path class="fil6" d="M5421.38 2365.61c13.08,8.67 48.26,20.76 58.28,29.78 20.83,18.74 9.48,34.22 36.11,60.86 7.14,-14.74 15.37,-44.14 27.55,-56.79 14.42,-14.98 5.26,-4.72 23.55,-14.41 9.49,-5.02 7.33,-3.03 15.28,-8.24 9.81,-6.46 7.91,-5.46 13.89,-11.2 -40.83,-32.02 -35.96,-4.56 -66.76,-58.6l-21.59 -26.65c-33.86,82.62 -10.35,42.04 -86.31,85.25z"/>
   <path class="fil6" d="M3430.91 2114.61c7.73,-9.33 1.42,-5.33 13.15,-14.08l41.47 -23.6c-31.05,-12.46 -57.08,-16.27 -66.73,-51.02l-19.75 -34.6c-34.48,70.5 -17.29,54.49 -87.98,83.64 22.08,27.19 37.1,17.19 56.39,35.96 12.69,12.34 21.46,42.78 30.97,60.06 7.45,-11.04 19.38,-48.64 32.48,-56.36z"/>
   <path class="fil7" d="M5863.24 3433.51c-41.96,36.45 -26.08,60.81 -56.24,97.34l-95.98 -207.07c-10.57,-11.13 -182.46,-85.03 -213.92,-93.64 5.56,30.8 20.91,20.76 52.62,33.18 18.55,7.27 33.07,16.04 56.78,25.69 49.79,20.24 77.55,23.58 90,34.59 16.36,14.47 8.47,8.67 15.4,24.27 15,33.74 31.08,69.95 47.48,112.1 0.71,1.82 10.2,89.65 62.89,91.81l40.97 -118.27z"/>
   <path class="fil7" d="M1459.98 3406.12c-32.62,-7.05 -9.24,-1.88 -15.22,8.81 -44.21,-8.37 -16.74,2.34 -22.57,8.33l-20.65 8.07 -31.71 6.97c-7.82,41.13 -6.75,11.7 15.76,17.68l7.43 12.53c17.85,21.7 47.52,22.66 74.69,24.07 3.36,14.79 -10.14,13.12 17.67,7.35l76.69 39.53c139.12,47.82 88.44,172.29 147.27,190.75 -4.37,-24.18 -56.55,-153.9 -69.06,-166.46 -13.52,-13.59 -134.08,-62.86 -154.9,-63.82l-17.67 -7.35c-1.59,-1.35 -3.74,-3.13 -4.86,-3.92l-34.81 -18.32c-17.96,-8.06 -20.92,-12.39 -42.45,-14.36 4.07,-8.2 -1.6,2.18 6.73,-10.75 3.67,-5.7 4.26,0.78 5.91,-9.04 0.45,-2.64 2.29,-3.19 3.31,-4.86 9.67,1.24 27.55,9.68 20.65,-8.07 11.88,1.12 28.46,9.28 22.57,-8.33 27.19,4.47 14.4,6.55 15.22,-8.81 23.97,1.15 8.79,4.21 28.38,-3.34 16.4,-6.32 2.21,-0.91 12.05,-11.37 -20.8,-1.54 -3.58,-6.65 -27.1,2.44 -24.41,9.44 -3.74,2.36 -13.33,12.27z"/>
   <path class="fil7" d="M4880.98 3931c31.38,-1.62 29.32,46.46 46.15,69.79 14.45,20.04 51.39,33.26 78.93,34.47 0.53,2.48 1.64,8.67 1.35,10.07 -0.37,1.78 -0.11,5.31 -5.71,16.18l25.02 -14.21c1.12,-3.25 2.79,-4.03 4.43,-6.6l-25.09 -5.44 -5.07 -17.88c-19.68,-3.9 -18.83,-3.22 -33.05,-9.8 -76.1,-35.2 -2.69,-102.68 -79.36,-103.54l-7.6 26.96z"/>
   <path class="fil7" d="M4032.94 3496.57c17.18,-49.31 3.2,-118.11 72.39,-119.61 67.57,-1.46 76.52,71.93 53.16,127.37l9.66 9.87c0.58,-1.51 3.11,3.02 4.01,4.94 3.83,-33.52 16.43,-74.75 5.77,-105.84 -14.44,-42.12 -156.62,-110.35 -144.99,83.27z"/>
   <path class="fil7" d="M3624.76 3467.2c-12.4,-71.97 32.66,-111.11 97.36,-77.81l8.4 8.83c25.57,41.67 11.14,78.67 49.03,135.49 7.58,-55.26 -18.64,-20.93 -24.61,-85.39 -3.12,-33.88 6.2,-54.02 -24.42,-50.1l-8.4 -8.83 -7.93 -24.31 -51.6 3.42c-0.85,2.39 -1.46,6.15 -2.14,6.85 -25.52,26.2 -47.28,-10.05 -48.82,82.89 17.13,10.09 8.9,-7.6 13.13,8.96z"/>
   <path class="fil7" d="M6102.28 4280.97l11.26 22.86c-6.5,18.7 0.24,-8.87 -8.62,15.73 -7.38,20.47 -5.84,24.82 -7.88,45.43l21.77 -29.03 27.37 -67.45 -43.9 12.46zm-9.09 12.01l-47.93 10.91c7.96,9.96 -14.54,22.2 34.53,9.48 6.77,-1.76 26.57,-16.49 27.36,-17.03l-13.96 -3.36z"/>
   <path class="fil7" d="M3430.91 2114.61c68.19,-6.22 23,-5.14 68.37,-32.28l-8.8 -18.48c-6.56,-8.41 -9.55,-9.64 -21.37,-14.3 -10.85,-4.27 -12.52,-2.84 -22.49,-7.18 -1.75,-0.76 -3.61,-1.63 -5.33,-2.49 -1.8,-0.89 -3.62,-2.02 -5.36,-2.97 -1.85,-1.02 -3.88,-2.42 -5.56,-3.41l-11.57 -7.59c9.65,34.75 35.68,38.56 66.73,51.02l-41.47 23.6c-11.73,8.75 -5.42,4.75 -13.15,14.08z"/>
   <path class="fil8" d="M4556.87 4662.79l-12.91 -10.91c-8.08,-6.85 -6.65,-5.54 -16.27,-14.41 -8.61,-7.93 -20.34,-19.26 -30.12,-25.25l45.2 -10.11c-43.25,0.83 -66.32,-4.41 -39.02,18.92 20.35,17.41 32.31,30.79 53.12,41.76z"/>
   <path class="fil8" d="M5727.81 5167.27c-22.25,-20.23 -7.03,3.97 -5.16,-11.09 0.15,-1.26 5.43,-4.79 5.81,-8.09 0.32,-2.76 3.13,-2.78 4.65,-4.22 -18.52,9.7 -39.77,26.03 -54.79,38.18l49.49 -14.78z"/>
   <path class="fil9" d="M935.71 3857.11c19.62,-4.05 35.23,-7.82 47.58,-9.4l-15 -40.72 6.96 31.47c-14.75,6.62 -25.63,4 -39.54,18.65z"/>
  </g>
 </g>
</svg>
