<?xml version="1.0" encoding="UTF-8"?>
<!DOCTYPE svg PUBLIC "-//W3C//DTD SVG 1.1//EN" "http://www.w3.org/Graphics/SVG/1.1/DTD/svg11.dtd">
<!-- Creator: CorelDRAW (Versión de evaluación) -->
<svg xmlns="http://www.w3.org/2000/svg" xml:space="preserve" width="76.2mm" height="76.2mm" version="1.1" style="shape-rendering:geometricPrecision; text-rendering:geometricPrecision; image-rendering:optimizeQuality; fill-rule:evenodd; clip-rule:evenodd"
viewBox="0 0 7620 7620"
 xmlns:xlink="http://www.w3.org/1999/xlink"
 xmlns:xodm="http://www.corel.com/coreldraw/odm/2003">
 <defs>
  <style type="text/css">
   <![CDATA[
    .str0 {stroke:#5CC6D0;stroke-width:20;stroke-miterlimit:22.9256}
    .fil1 {fill:#F7ADAF}
    .fil0 {fill:#5CC6D0}
    .fil2 {fill:#050102}
    .fil6 {fill:#7B3347}
    .fil5 {fill:#888787}
    .fil4 {fill:#A9455E}
    .fil3 {fill:#FDDB64}
   ]]>
  </style>
 </defs>
 <g id="Capa_x0020_1">
  <metadata id="CorelCorpID_0Corel-Layer"/>
  <ellipse class="fil0 str0" cx="3799.01" cy="3795.73" rx="3706.2" ry="3421.92"/>
  <path class="fil1" d="M4145.21 5091.95c-246.82,90.08 -141.23,-266.02 -119.14,-304.83 69.51,-16 30.69,-21.78 105.2,0.88 40.59,71.89 38.24,219.89 13.94,303.95zm1099.53 -1476.08c-27.68,98.95 -36.67,81.77 -163.47,74.26 -4.25,-38.95 -35.45,-94.89 5.26,-118.97 33.42,-125.17 187.3,-242.92 373.6,-223.37 151.05,15.86 312.37,144.41 290.38,314.15 -169.32,79.57 -125.67,-65.29 -227.08,-121.91 -118.83,-66.36 -240.71,-7.63 -278.69,75.84zm-1593.6 905.54c-22.67,34.73 -37.53,70.77 -48.52,95.09 -38.26,6.41 -82.46,7.7 -123.47,5.75 -13.48,-35.7 -13.7,-55.7 -42.82,-100.93 -181.36,-1.64 -459.07,-154.53 -416.17,-336.38 10.63,-45.02 53.97,-86.7 109.54,-60.46 95.68,45.2 -7.18,202.83 328.73,232.68l-1.47 -418.24 -220.79 -88.16 -115.57 -59.53c-56.12,-40.55 -37.02,-30.41 -51.16,-64 -142.81,-263.82 33.93,-432.68 270.78,-490.45 203.91,-49.74 59.19,-47.44 185.33,-111.07 157.84,18.71 15.35,64.87 175.75,102.17 173.89,40.43 419.77,139.07 352.5,380.59 -91.72,35.95 -137.18,31.48 -147.22,-72.52 -37.55,-32.7 -60.23,-68.16 -90.84,-100.43l-189.25 -49.38 0.2 425.94c188.87,43.68 424.35,150.69 440.58,352.31 17.09,212.28 -215.56,352.71 -416.13,357.02zm-1875.97 -1408.76c-13.54,34.47 -2.44,11.78 -20.37,40.44 -1.66,2.67 -8.35,13.69 -9.67,10.81 -1.33,-2.88 -7.09,6.61 -10.52,10.02 -40.57,127.31 -90.05,221.95 -122.12,378.09 -84.28,410.45 3.47,896.7 126.65,1278.03 63.33,196.04 383.37,911.76 498.86,984 63.21,39.54 383.82,27.47 469.05,7.18 70.85,-50.07 27.25,-759.66 37.23,-936.06 4.77,-84.34 56.17,-157.01 138.07,-95.93 64.99,48.46 15.62,471.73 35.71,668.3 154.9,20.97 963.54,54.46 1063.79,10.84 21.36,-65.16 -7.54,-125.45 61.27,-156.02 62.23,-27.65 102.03,12.27 113.97,64.08 87.02,377.51 -227.22,481.94 436.48,461.41 174.95,-5.41 151.61,-118.49 188.72,-290.07 36.66,-169.48 119.66,-669.9 185.99,-775.6l116.14 18.8c49.26,188.98 -92.08,412.78 -90.7,614.67 494.75,-107.45 932.3,-595.59 1073.52,-1088.06 53.23,-185.63 19.05,-531.2 216.74,-401.44 30.02,141.37 -26.2,238.19 -19.55,361.9l-26.9 117.3 230.14 -2.63c0.8,-175.98 31.04,-574.02 -10.12,-705.35 -228.26,17.28 -322.63,22.26 -372.17,-186.06 -40.89,-171.92 -107.21,-273.83 -149.62,-405.54l-41.99 -57.62c-39.96,-91.87 -228.58,-304.32 -290.47,-355.27 -104.83,-86.31 -225.1,-186.29 -372.44,-248.2 -14.34,127.39 24.36,210.09 -145.9,168.86 -61.36,-137.71 -18.39,-327.04 -125.22,-526.39 -51.43,-95.94 -221.14,-306.76 -343.79,-293.57 -51.99,202.25 51.77,566.84 -40.01,735.23 -184.73,27.89 -128.12,-97.05 -142.54,-253.51l-270.82 3.69 -19.93 177.07c94.58,36.88 122.54,20.33 90.77,149.69 -102.63,44.39 -1266.75,44.99 -1382.27,4.09 -32.28,-134.7 -5.03,-113.33 91.06,-153.78 -0.92,-58.04 -7.29,-105.36 -31.4,-151.85 -430.72,29.01 -947.47,436.87 -1135.64,818.45z"/>
  <path class="fil2" d="M5893.77 3038.14c23.95,25.65 -6.27,-12.83 28.33,33.03 26.2,34.73 -13.87,-28.26 13.66,24.59 42.41,131.71 108.73,233.62 149.62,405.54 49.54,208.32 143.91,203.34 372.17,186.06l35.48 24.34 -6.76 705.53 -269.34 0.15c3.64,-47.84 -1.26,-32.03 14.07,-80.55 22.66,-71.75 7.25,-31.83 33.43,-58.79 -6.65,-123.71 49.57,-220.53 19.55,-361.9 -197.69,-129.76 -163.51,215.81 -216.74,401.44 -141.22,492.47 -578.77,980.61 -1073.52,1088.06 -1.38,-201.89 139.96,-425.69 90.7,-614.67l-116.14 -18.8c-66.33,105.7 -149.33,606.12 -185.99,775.6 -37.11,171.58 -13.77,284.66 -188.72,290.07 -663.7,20.53 -349.46,-83.9 -436.48,-461.41 -11.94,-51.81 -51.74,-91.73 -113.97,-64.08 -68.81,30.57 -39.91,90.86 -61.27,156.02 -100.25,43.62 -908.89,10.13 -1063.79,-10.84 -20.09,-196.57 29.28,-619.84 -35.71,-668.3 -81.9,-61.08 -133.3,11.59 -138.07,95.93 -9.98,176.4 33.62,885.99 -37.23,936.06 -85.23,20.29 -405.84,32.36 -469.05,-7.18 -115.49,-72.24 -435.53,-787.96 -498.86,-984 -123.18,-381.33 -210.93,-867.58 -126.65,-1278.03 32.07,-156.14 81.55,-250.78 122.12,-378.09 15.25,-36.62 2.2,-10.54 20.61,-39.78 1.68,-2.67 8.24,-4.19 9.58,-11.04 1.35,-6.9 6.98,-6.9 10.37,-10.45 188.17,-381.58 704.92,-789.44 1135.64,-818.45 24.11,46.49 30.48,93.81 31.4,151.85 -96.09,40.45 -123.34,19.08 -91.06,153.78 115.52,40.9 1279.64,40.3 1382.27,-4.09 31.77,-129.36 3.81,-112.81 -90.77,-149.69l19.93 -177.07 270.82 -3.69c14.42,156.46 -42.19,281.4 142.54,253.51 91.78,-168.39 -11.98,-532.98 40.01,-735.23 122.65,-13.19 292.36,197.63 343.79,293.57 106.83,199.35 63.86,388.68 125.22,526.39 170.26,41.23 131.56,-41.47 145.9,-168.86 147.34,61.91 267.61,161.89 372.44,248.2 61.89,50.95 250.51,263.4 290.47,355.27zm-2768.88 -586.91c-41.46,-185.39 -55.64,-286.2 51.48,-444.66 159.84,-236.44 563.81,-267.78 745.55,25.18 35.05,56.51 61.14,123.89 67.32,199.65 6.46,79.21 -2.64,155.88 -47.83,221.33l-816.52 -1.5zm1321.2 -827.9l-6.13 480.07 -301.08 -0.71 -21.68 -29.34c-45.18,-224.33 -310.77,-432.34 -609.19,-419.37 -308.74,13.41 -463.51,195.05 -567.5,460.25 -444.62,68.47 -806.76,287.08 -1022.1,514.47 -128.88,136.09 -221.77,253.77 -322.46,454.94 -42.41,84.73 -79.22,183.11 -107.52,272.41l-78.33 310 0 472.74c78.98,168.84 7.51,723.73 635.73,1703.95 71.82,112.05 125.35,159.3 303.54,162.27 385.91,6.44 552.77,40.48 566.08,-372.61 344.1,10.31 736.58,-1.25 1075.18,19.19 18.16,363.48 150.57,352.59 493.23,353.24 149.7,0.29 269.31,6.51 350.45,-80.64 84.53,-90.78 63.79,-209.92 114.7,-318.12 50.76,-29.62 132.37,-44.74 200.29,-71.05 454.25,-176.01 785.03,-482.64 999.73,-952.1 341.82,-15.09 339.62,54.06 504.5,-118.83l0 -832.45c-149.88,-160.91 -94.35,-86.26 -386.42,-112.35 -50.7,-135.41 -63.46,-235.25 -122.7,-365.42 -97.26,-213.66 -239.89,-428.55 -400.04,-575.87 -55.98,-51.49 -181.42,-151.03 -267.85,-202.73 -47.58,-28.46 -106.49,-60.97 -163.3,-89.39 -70.12,-35.07 -102.31,-30.19 -133.06,-102.62 -83.92,-197.63 -137.62,-394.36 -418.76,-539.15 -95.77,-49.31 -261.69,-130.18 -315.31,-20.78z"/>
  <path class="fil2" d="M3700.66 4340.32c-38.58,37.65 -0.45,21.43 -66.62,27.3 -49.21,-91.72 -20.59,-269.97 -16.07,-380.94 76.64,1.88 28.9,0.5 46.22,20.2 308.67,55.25 311.47,310.74 36.47,333.44zm-243.83 -584.36c-361.51,-78.06 -375.79,-332.16 1.4,-369.55l-1.4 369.55zm-387.39 -28.73l166.73 123.53 220.79 88.16 1.47 418.24c-335.91,-29.85 -233.05,-187.48 -328.73,-232.68 -55.57,-26.24 -98.91,15.44 -109.54,60.46 -42.9,181.85 234.81,334.74 416.17,336.38 51.5,27.8 6.57,-5.03 43.62,50.86 15.06,22.72 -8.78,40.8 62.73,38 101.78,-3.99 20.2,-38.12 108.46,-88.77 200.57,-4.31 433.22,-144.74 416.13,-357.02 -16.23,-201.62 -251.71,-308.63 -440.58,-352.31l-0.2 -425.94 189.25 49.38c55.69,35.28 62.54,45.58 90.84,100.43 10.04,104 55.5,108.47 147.22,72.52 67.27,-241.52 -178.61,-340.16 -352.5,-380.59 -160.4,-37.3 -17.91,-83.46 -175.75,-102.17 -126.14,63.63 18.58,61.33 -185.33,111.07 -236.85,57.77 -413.59,226.63 -270.78,490.45z"/>
  <path class="fil3" d="M3124.89 2451.23l816.52 1.5c45.19,-65.45 54.29,-142.12 47.83,-221.33 -6.18,-75.76 -32.27,-143.14 -67.32,-199.65 -181.74,-292.96 -585.71,-261.62 -745.55,-25.18 -107.12,158.46 -92.94,259.27 -51.48,444.66z"/>
  <path class="fil2" d="M5086.53 3571.16c-3.45,111.2 -1.23,100.71 108.7,110.21 2.69,-3.31 6.41,-12.98 7.57,-10.3 15.46,35.71 5.83,-8.77 23.98,-32.54l17.96 -22.66c37.98,-83.47 159.86,-142.2 278.69,-75.84 101.41,56.62 57.76,201.48 227.08,121.91 21.99,-169.74 -139.33,-298.29 -290.38,-314.15 -186.3,-19.55 -340.18,98.2 -373.6,223.37z"/>
  <path class="fil1" d="M3456.83 3755.96l1.4 -369.55c-377.19,37.39 -362.91,291.49 -1.4,369.55z"/>
  <path class="fil1" d="M3700.66 4340.32c275,-22.7 272.2,-278.19 -36.47,-333.44l-30.25 4.67 0.6 339.53 66.12 -10.76z"/>
  <path class="fil2" d="M4145.21 5091.95c24.3,-84.06 26.65,-232.06 -13.94,-303.95 -74.51,-22.66 -35.69,-16.88 -105.2,-0.88 -22.09,38.81 -127.68,394.91 119.14,304.83z"/>
  <path class="fil4" d="M6264.43 4278.04c-26.18,26.96 -10.77,-12.96 -33.43,58.79 -15.33,48.52 -10.43,32.71 -14.07,80.55l269.34 -0.15 6.76 -705.53 -35.48 -24.34c41.16,131.33 10.92,529.37 10.12,705.35l-230.14 2.63 26.9 -117.3z"/>
  <path class="fil5" d="M4117.2 2073.35l21.68 29.34 301.08 0.71 6.13 -480.07c-32.17,69.13 -20.41,378.91 -21.97,462.2 -98.16,4.11 -234.65,21.39 -306.92,-12.18z"/>
  <path class="fil6" d="M3700.66 4340.32l-66.12 10.76 -0.6 -339.53 30.25 -4.67c-17.32,-19.7 30.42,-18.32 -46.22,-20.2 -4.52,110.97 -33.14,289.22 16.07,380.94 66.17,-5.87 28.04,10.35 66.62,-27.3z"/>
  <path class="fil6" d="M5244.74 3615.87l-17.96 22.66c-18.15,23.77 -8.52,68.25 -23.98,32.54 -1.16,-2.68 -4.88,6.99 -7.57,10.3 -109.93,-9.5 -112.15,0.99 -108.7,-110.21 -40.71,24.08 -9.51,80.02 -5.26,118.97 126.8,7.51 135.79,24.69 163.47,-74.26z"/>
  <path class="fil6" d="M3651.14 4521.41c-88.26,50.65 -6.68,84.78 -108.46,88.77 -71.51,2.8 -47.67,-15.28 -62.73,-38 -37.05,-55.89 7.88,-23.06 -43.62,-50.86 29.12,45.23 29.34,65.23 42.82,100.93 41.01,1.95 85.21,0.66 123.47,-5.75 10.99,-24.32 25.85,-60.36 48.52,-95.09z"/>
  <path class="fil6" d="M3236.17 3850.76l-166.73 -123.53c14.14,33.59 -4.96,23.45 51.16,64l115.57 59.53z"/>
  <path class="fil6" d="M3906.58 3535.95c-28.3,-54.85 -35.15,-65.15 -90.84,-100.43 30.61,32.27 53.29,67.73 90.84,100.43z"/>
  <path class="fil6" d="M1734.61 3173.92c3.43,-3.41 9.19,-12.9 10.52,-10.02 1.32,2.88 8.01,-8.14 9.67,-10.81 17.93,-28.66 6.83,-5.97 20.37,-40.44 -3.39,3.55 -9.02,3.55 -10.37,10.45 -1.34,6.85 -7.9,8.37 -9.58,11.04 -18.41,29.24 -5.36,3.16 -20.61,39.78z"/>
  <path class="fil6" d="M5935.76 3095.76c-27.53,-52.85 12.54,10.14 -13.66,-24.59 -34.6,-45.86 -4.38,-7.38 -28.33,-33.03l41.99 57.62z"/>
 </g>
</svg>
