<?xml version="1.0" encoding="UTF-8"?>
<!DOCTYPE svg PUBLIC "-//W3C//DTD SVG 1.1//EN" "http://www.w3.org/Graphics/SVG/1.1/DTD/svg11.dtd">
<!-- Creator: CorelDRAW (Versión de evaluación) -->
<svg xmlns="http://www.w3.org/2000/svg" xml:space="preserve" width="304.8mm" height="152.4mm" version="1.1" style="shape-rendering:geometricPrecision; text-rendering:geometricPrecision; image-rendering:optimizeQuality; fill-rule:evenodd; clip-rule:evenodd"
viewBox="0 0 30480 15240"
 xmlns:xlink="http://www.w3.org/1999/xlink"
 xmlns:xodm="http://www.corel.com/coreldraw/odm/2003">
 <defs>
  <style type="text/css">
   <![CDATA[
    .str1 {stroke:#FEFEFE;stroke-width:20;stroke-miterlimit:22.9256}
    .str0 {stroke:#F7ADAF;stroke-width:20;stroke-miterlimit:22.9256}
    .fil0 {fill:#F7ADAF}
    .fil1 {fill:#FEFEFE;fill-rule:nonzero}
   ]]>
  </style>
 </defs>
 <g id="Capa_x0020_1">
  <metadata id="CorelCorpID_0Corel-Layer"/>
  <g id="_1987188760704">
   <ellipse class="fil0 str0" cx="7807.84" cy="7633.92" rx="7731.3" ry="7138.28"/>
   <ellipse class="fil0 str0" cx="22634.58" cy="7633.92" rx="7731.3" ry="7138.28"/>
   <rect class="fil0 str0" x="7807.81" y="495.62" width="14826.75" height="14276.55"/>
  </g>
  <path class="fil1 str1" d="M3135.72 6771.41l1004.13 1520.62 0 -1535.01c0,-99.71 21.62,-174.15 64.26,-224.03 42.65,-49.83 100.32,-75.07 172.96,-75.07 74.48,0 133.94,24.64 177.18,74.48 43.24,49.83 64.86,124.91 64.86,224.62l0 2028.06c0,226.41 -93.68,339.32 -281.06,339.32 -46.86,0 -88.91,-6.6 -126.74,-20.43 -37.2,-13.19 -72.65,-34.81 -105.08,-63.67 -33.03,-29.4 -63.07,-63.62 -91.29,-103.29 -28.22,-39.02 -56.43,-79.24 -84.69,-120.1l-979.49 -1501.39 0 1509.82c0,98.48 -22.82,172.96 -68.48,223.39 -46.22,50.43 -105.08,75.67 -176.53,75.67 -73.89,0 -133.34,-25.24 -177.77,-76.26 -45.07,-51.08 -67.29,-125.51 -67.29,-222.8l0 -1989.07c0,-84.65 9.62,-150.7 28.26,-198.75 22.22,-52.86 59.46,-96.1 111.08,-129.72 51.67,-33.03 107.5,-49.88 166.96,-49.88 47.45,0 87.67,7.83 120.69,22.85 33.67,15.62 63.08,36.01 88.31,61.84 25.2,25.83 51.03,58.86 77.46,100.31 26.43,40.82 54.05,83.46 82.27,128.49zm2059.33 1243.18l0 -1240.16c0,-105.72 24.01,-184.37 71.46,-237.22 47.45,-52.86 109.89,-79.29 187.39,-79.29 80.48,0 144.7,26.43 192.15,79.29 47.45,52.85 71.46,132.14 71.46,237.22l0 1268.98c0,144.14 16.21,264.84 48.64,361.53 31.84,96.7 89.5,171.77 171.17,225.22 82.27,53.42 197.01,79.85 344.73,79.85 204.2,0 348.3,-54.05 432.99,-162.75 84.7,-108.7 126.74,-273.23 126.74,-493.64l0 -1279.19c0,-106.31 23.41,-186.15 70.27,-238.42 46.81,-52.26 109.89,-78.09 188.53,-78.09 78.1,0 141.77,25.83 190.41,78.09 48.65,52.27 73.25,132.11 73.25,238.42l0 1240.16c0,201.78 -19.79,370.52 -58.86,505.05 -39.62,135.12 -113.51,253.44 -222.8,355.54 -93.67,86.48 -202.96,149.55 -327.28,189.77 -124.35,39.62 -269.65,59.45 -436.01,59.45 -198.2,0 -368.73,-21.62 -512.28,-64.26 -142.91,-42.65 -259.44,-109.29 -349.54,-198.8 -90.69,-89.45 -156.74,-204.79 -199.39,-344.68 -42,-139.93 -63.03,-307.49 -63.03,-502.07zm4433.91 -1109.85l-1177.09 0 0 634.22 1083.97 0c79.89,0 139.34,18 178.37,53.41 39.66,35.45 58.86,82.9 58.86,141.16 0,58.23 -19.2,106.27 -57.63,142.92 -39.07,36.64 -98.52,55.24 -179.6,55.24l-1083.97 0 0 735.08 1217.31 0c82.27,0 144.15,19.23 185.56,57.07 42.05,37.83 63.07,88.86 63.07,151.93 0,60.65 -21.02,110.48 -63.07,148.32 -41.41,37.83 -103.29,57.07 -185.56,57.07l-1419.72 0c-113.5,0 -195.17,-25.24 -245.01,-75.67 -49.84,-50.43 -75.07,-132.1 -75.07,-244.41l0 -1939.79c0,-75.08 11.4,-136.36 33.62,-183.77 22.21,-47.46 57.07,-82.31 104.52,-103.93 47.41,-21.62 108.1,-32.43 181.94,-32.43l1379.5 0c83.46,0 145.34,18.64 185.56,55.28 40.22,37.24 60.65,85.89 60.65,145.34 0,61.24 -20.43,110.48 -60.65,147.72 -40.22,36.65 -102.1,55.24 -185.56,55.24zm1086.4 -103.88l583.74 1728.99 585.53 -1740.99c30.64,-91.89 53.45,-155.56 68.47,-191.01 15.62,-36 40.86,-67.84 75.67,-96.69 35.45,-28.81 83.46,-43.24 144.15,-43.24 44.43,0 85.88,11.45 124.31,33.66 37.84,22.22 67.84,51.63 89.46,88.87 21.62,36.64 32.43,73.88 32.43,111.71 0,25.2 -3.57,53.46 -10.81,83.46 -6.59,29.45 -15.62,58.86 -25.83,87.67 -10.81,28.86 -21.62,58.26 -31.79,88.91l-624 1685.16c-22.81,64.26 -45.03,125.5 -67.24,183.77 -22.26,57.66 -48.05,108.69 -77.5,153.12 -28.82,43.84 -67.84,79.89 -116.49,108.1 -48.64,28.22 -108.1,42.05 -178.36,42.05 -70.86,0 -130.32,-13.83 -178.96,-41.45 -48.65,-27.62 -87.71,-63.63 -117.72,-108.7 -29.45,-45.62 -55.88,-96.69 -78.09,-154.32 -22.22,-57.07 -44.44,-118.31 -66.65,-182.57l-613.79 -1671.37c-10.81,-30.01 -21.62,-60.05 -32.43,-89.46 -11.4,-29.45 -20.38,-61.24 -28.21,-94.91 -7.79,-34.22 -11.41,-63.03 -11.41,-86.48 0,-59.45 24.01,-114.1 72.05,-163.34 48.05,-49.24 108.7,-73.88 181.39,-73.88 88.86,0 151.94,27.02 188.58,81.71 37.24,54.65 75.07,141.72 113.5,261.23zm3184.13 -342.94c267.86,0 497.26,54.05 688.86,162.79 191.55,108.1 336.89,262.41 435.37,462.4 98.48,199.98 147.77,434.82 147.77,704.47 0,199.35 -27.03,380.74 -81.08,543.48 -54.05,163.34 -134.53,304.51 -242.63,424.02 -108.09,119.5 -240.24,210.79 -397.58,274.41 -157.34,63.08 -336.9,94.91 -539.9,94.91 -201.77,0 -382.56,-32.43 -541.69,-97.88 -159.77,-64.86 -292.46,-156.75 -399.37,-275.06 -106.91,-118.32 -187.39,-260.63 -242.03,-427.59 -54.65,-166.36 -81.68,-346.52 -81.68,-539.9 0,-198.2 28.22,-379.54 85.29,-545.31 57.03,-165.17 139.34,-305.7 247.44,-422.18 107.5,-115.93 239.01,-204.8 393.97,-266.04 154.32,-61.88 330.3,-92.52 527.26,-92.52zm742.31 1326.05c0,-188.58 -30.64,-352.52 -91.29,-491.26 -61.28,-138.15 -148.36,-242.63 -261.27,-314.08 -112.91,-70.86 -243.22,-106.32 -389.75,-106.32 -103.89,0 -200.58,19.84 -288.85,58.86 -88.9,39.63 -165.17,96.7 -228.84,171.77 -63.62,75.07 -114.1,171.13 -151.34,287.66 -36.6,117.12 -55.24,248.03 -55.24,393.37 0,147.12 18.64,279.27 55.24,398.18 37.24,118.27 89.5,216.79 156.75,294.85 67.28,78.09 144.74,136.31 231.82,174.78 87.67,39.03 183.17,58.23 287.65,58.23 133.93,0 256.46,-33.63 368.77,-100.27 111.68,-66.69 200.58,-169.98 267.23,-309.92 66.05,-139.29 99.12,-311.66 99.12,-515.85zm4233.88 248.63l0 494.23c0,66.1 -6.59,118.32 -19.19,157.38 -13.24,39.63 -36.65,75.04 -71.5,106.27 -34.81,31.84 -79.25,62.48 -133.3,91.89 -155.55,84.09 -305.7,145.34 -449.8,184.36 -144.15,38.43 -301.49,57.67 -471.47,57.67 -198.15,0 -378.94,-30.64 -541.69,-91.29 -163.34,-61.24 -302.08,-149.55 -416.77,-266.03 -115.34,-115.93 -203.61,-256.46 -264.85,-421.59 -61.88,-165.77 -92.48,-350.13 -92.48,-554.33 0,-200.58 30.01,-383.75 89.46,-550.71 60.05,-166.36 147.76,-307.49 264.25,-423.97 115.93,-115.93 257.05,-204.8 424.01,-266.04 166.32,-61.88 354.9,-92.52 566.29,-92.52 173.6,0 327.32,23.45 460.66,69.67 133.93,46.26 242.62,104.52 325.49,174.79 83.45,70.26 145.93,144.7 188.58,223.39 42.04,78.69 63.07,148.32 63.07,209.6 0,65.46 -24.64,121.29 -73.29,167.55 -48.64,46.86 -106.91,69.67 -175.34,69.67 -37.24,0 -73.29,-8.42 -108.1,-26.43 -34.86,-17.4 -63.67,-42.04 -87.12,-73.28 -64.86,-100.87 -118.91,-177.17 -163.34,-228.8 -45.03,-51.07 -105.08,-94.9 -180.15,-129.72 -75.67,-35.45 -172.36,-52.86 -289.49,-52.86 -120.69,0 -228.79,21.03 -323.7,62.48 -94.86,41.41 -175.94,102.1 -243.22,181.34 -67.25,78.7 -118.91,175.98 -154.92,290.68 -35.45,115.29 -53.45,242.63 -53.45,381.97 0,302.67 69.67,535.09 208.37,698.43 138.74,162.74 332.72,244.42 580.76,244.42 120.69,0 234.2,-15.62 340.51,-47.42 105.67,-31.83 213.77,-76.9 322.51,-135.76l0 -418.56 -404.18 0c-97.29,0 -171.17,-14.43 -221.01,-43.84 -49.84,-29.45 -74.48,-79.29 -74.48,-150.15 0,-57.07 21.03,-105.08 62.48,-142.31 41.41,-37.84 97.88,-56.48 169.94,-56.48l592.76 0c72.64,0 134.52,6.6 184.96,19.24 50.43,13.19 91.28,42.04 121.93,86.48 31.19,44.43 46.81,111.67 46.81,200.58zm2010.69 756.1l-123.12 -323.71 -1048.56 0 -123.13 330.3c-48.04,129.13 -88.9,216.2 -123.12,261.23 -33.62,45.07 -89.46,67.88 -166.96,67.88 -65.45,0 -123.72,-24 -174.15,-72.05 -50.43,-48.05 -75.67,-102.7 -75.67,-163.38 0,-35.41 6,-72.06 17.41,-109.3 12,-37.83 31.24,-89.45 58.26,-156.74l659.41 -1674.35c19.24,-48.05 41.45,-105.67 67.88,-172.96 26.43,-67.84 54.65,-123.72 84.65,-168.15 30.05,-44.43 69.07,-80.48 117.72,-108.1 48.64,-27.62 108.69,-41.45 180.15,-41.45 73.29,0 133.93,13.83 182.58,41.45 48.64,27.62 87.67,63.07 117.71,106.31 30.05,43.24 55.25,90.06 75.67,139.94 20.43,49.83 46.86,116.48 78.06,199.38l673.83 1664.14c52.86,126.7 79.29,218.58 79.29,276.25 0,59.45 -24.64,114.7 -74.48,164.53 -49.84,49.84 -110.48,74.48 -180.75,74.48 -40.85,0 -76.26,-7.19 -105.71,-22.22 -28.82,-14.42 -53.46,-34.21 -73.88,-59.45 -19.79,-25.24 -40.82,-64.26 -63.63,-115.93 -23.45,-52.22 -42.64,-98.48 -59.46,-138.1zm-1034.18 -716.48l770.53 0 -388.56 -1062.99 -381.97 1062.99zm3934.87 235.43c0,155.56 -40.26,295.49 -120.7,419.8 -79.88,124.32 -197.6,221.61 -352.56,291.87 -154.91,70.27 -338.68,105.08 -550.71,105.08 -254.63,0 -464.83,-48.05 -629.95,-143.55 -117.13,-69.03 -212.03,-161.51 -285.28,-276.85 -73.28,-115.29 -109.88,-227.6 -109.88,-336.89 0,-63.07 22.21,-117.12 66.05,-162.75 43.83,-45.07 99.67,-67.28 167.55,-67.28 55.24,0 101.51,17.4 139.34,52.86 38.43,34.81 70.86,87.07 97.89,156.74 32.43,81.67 68.43,150.74 106.27,205.39 38.47,55.24 91.88,100.91 160.95,136.91 69.67,35.45 160.36,53.46 273.27,53.46 154.32,0 280.47,-36.01 377.16,-108.1 96.65,-72.06 145.3,-162.15 145.3,-270.25 0,-85.89 -25.79,-155.56 -78.06,-208.37 -52.26,-53.46 -120.1,-94.31 -203,-122.53 -82.27,-28.21 -193.35,-58.26 -331.49,-90.1 -184.96,-43.24 -340.52,-94.26 -464.83,-151.93 -124.91,-58.26 -223.99,-137.51 -297.27,-237.82 -73.29,-100.27 -109.89,-224.58 -109.89,-374.13 0,-141.73 38.43,-267.87 115.89,-378.35 77.45,-109.89 189.77,-194.58 336.3,-254.04 146.57,-59.45 318.89,-88.9 517.09,-88.9 157.93,0 294.89,19.83 410.77,58.86 115.3,39.66 211.39,91.88 287.66,156.74 75.67,64.86 131.55,133.34 166.96,204.79 34.85,71.46 52.86,141.73 52.86,209.61 0,61.84 -22.22,118.31 -66.06,168.15 -43.83,49.83 -99.07,74.48 -164.57,74.48 -60.05,0 -105.08,-15.03 -136.32,-44.44 -31.23,-30.04 -64.86,-79.28 -100.9,-147.16 -47.41,-97.29 -103.29,-173.56 -169.35,-228.21 -65.45,-54.64 -171.17,-81.67 -317.1,-81.67 -134.49,0 -243.82,29.46 -326.09,88.91 -82.86,59.45 -124.31,130.31 -124.31,213.77 0,51.67 13.83,96.1 42.05,133.94 28.21,37.23 67.24,69.66 116.48,96.69 49.28,27.02 99.12,48.05 149.55,63.67 50.43,14.98 133.93,37.24 249.82,66.64 145.34,34.22 277.49,71.46 395.16,112.91 117.72,40.82 218.03,90.7 300.89,149.55 82.91,58.23 147.13,132.7 193.39,222.2 46.26,90.06 69.67,199.99 69.67,330.3zm2119.34 -1374.09l-569.9 0 0 1872.54c0,108.1 -24.05,187.99 -72.69,240.25 -48.05,52.22 -110.48,78.05 -186.75,78.05 -77.5,0 -141.13,-26.43 -189.77,-79.29 -48.64,-52.81 -73.29,-132.1 -73.29,-239.01l0 -1872.54 -569.9 0c-89.5,0 -155.55,-19.79 -198.79,-58.82 -43.24,-39.66 -65.46,-91.88 -65.46,-156.74 0,-66.69 22.81,-119.55 67.84,-158.58 45.07,-39.03 110.52,-58.26 196.41,-58.26l1662.3 0c90.7,0 157.34,19.83 201.82,60.09 43.83,40.22 66.05,92.48 66.05,156.75 0,64.86 -22.81,117.08 -67.29,156.74 -44.43,39.03 -111.07,58.82 -200.58,58.82zm1663.54 -475.64c267.87,0 497.26,54.05 688.86,162.79 191.56,108.1 336.9,262.41 435.38,462.4 98.48,199.98 147.76,434.82 147.76,704.47 0,199.35 -27.02,380.74 -81.07,543.48 -54.05,163.34 -134.53,304.51 -242.63,424.02 -108.1,119.5 -240.24,210.79 -397.58,274.41 -157.34,63.08 -336.9,94.91 -539.91,94.91 -201.77,0 -382.56,-32.43 -541.68,-97.88 -159.77,-64.86 -292.47,-156.75 -399.38,-275.06 -106.9,-118.32 -187.38,-260.63 -242.03,-427.59 -54.64,-166.36 -81.67,-346.52 -81.67,-539.9 0,-198.2 28.22,-379.54 85.29,-545.31 57.03,-165.17 139.34,-305.7 247.44,-422.18 107.5,-115.93 239.01,-204.8 393.96,-266.04 154.32,-61.88 330.3,-92.52 527.26,-92.52zm742.32 1326.05c0,-188.58 -30.65,-352.52 -91.29,-491.26 -61.29,-138.15 -148.36,-242.63 -261.27,-314.08 -112.91,-70.86 -243.23,-106.32 -389.76,-106.32 -103.88,0 -200.58,19.84 -288.84,58.86 -88.91,39.63 -165.17,96.7 -228.84,171.77 -63.63,75.07 -114.1,171.13 -151.34,287.66 -36.6,117.12 -55.24,248.03 -55.24,393.37 0,147.12 18.64,279.27 55.24,398.18 37.24,118.27 89.5,216.79 156.74,294.85 67.29,78.09 144.75,136.31 231.82,174.78 87.67,39.03 183.17,58.23 287.66,58.23 133.93,0 256.46,-33.63 368.77,-100.27 111.67,-66.69 200.58,-169.98 267.23,-309.92 66.05,-139.29 99.12,-311.66 99.12,-515.85z"/>
 </g>
</svg>
