<?xml version="1.0" encoding="UTF-8"?>
<!DOCTYPE svg PUBLIC "-//W3C//DTD SVG 1.1//EN" "http://www.w3.org/Graphics/SVG/1.1/DTD/svg11.dtd">
<!-- Creator: CorelDRAW (Versión de evaluación) -->
<svg xmlns="http://www.w3.org/2000/svg" xml:space="preserve" width="76.2mm" height="76.2mm" version="1.1" style="shape-rendering:geometricPrecision; text-rendering:geometricPrecision; image-rendering:optimizeQuality; fill-rule:evenodd; clip-rule:evenodd"
viewBox="0 0 7620 7620"
 xmlns:xlink="http://www.w3.org/1999/xlink"
 xmlns:xodm="http://www.corel.com/coreldraw/odm/2003">
 <defs>
  <style type="text/css">
   <![CDATA[
    .str0 {stroke:#5CC6D0;stroke-width:20;stroke-miterlimit:22.9256}
    .fil0 {fill:#5CC6D0}
    .fil2 {fill:black}
    .fil8 {fill:#29374B}
    .fil6 {fill:#563A3E}
    .fil7 {fill:#6D693B}
    .fil4 {fill:#7BA0DA}
    .fil1 {fill:#E58996}
    .fil3 {fill:#F4EC85}
    .fil5 {fill:#FEFEFE}
   ]]>
  </style>
 </defs>
 <g id="Capa_x0020_1">
  <metadata id="CorelCorpID_0Corel-Layer"/>
  <ellipse class="fil0 str0" cx="3810.93" cy="3848.17" rx="3530.52" ry="3259.71"/>
  <g id="_1986916173216">
   <path class="fil1" d="M5520.3 5042.37c-29.69,27.78 -448.82,13.46 -526.32,13.87 6.15,84.72 18.88,482.04 -11.96,528.25 0.51,55.1 -36.04,104.19 -86.07,136.6 -56.26,36.45 -103.28,33.7 -180.95,33.44 -359.36,-1.22 -599.14,75.26 -598.4,-273.28 0.3,-142.76 1.24,-285.53 1.24,-428.86 -685.39,0 -700,69.64 -700,-440.07 0,-499.9 16.29,-433.41 700,-433.41 0,-696.83 -61.74,-700.25 444.5,-700.25 502.89,0 429.54,30.93 429.54,700.25 770.99,0 700.29,-61.39 701.3,609.62 0.18,115.31 -34.98,246.74 -172.88,253.84zm-2003.43 -1683.71c487.97,-67.03 611.68,359.37 301.44,510.3 -147.46,71.73 -340.3,45.06 -446.36,-50.2 -112.2,-100.77 -136,-293.61 10.82,-381.57 -35.29,-48.13 -41.98,-67.52 -41.8,-151.69 0.17,-75.82 -2.08,-96.18 29.21,-143.98 178.21,-44.47 141.08,74.97 146.69,217.14zm-1049.65 -85.54c63.84,-20.9 93.66,44.69 139.07,66.78 176.38,85.82 234.16,-150.8 335.53,-42.3 51.46,55.09 6.95,123.91 -26.11,149 -302.19,229.4 -674.41,-99.51 -448.49,-173.48zm-485.53 167.46c49.66,18.2 98.12,105.88 99.22,185.14 1.29,93.32 -53.31,152.01 -97.88,192.26 -281.41,254.08 -783.13,-76.24 -548.53,-337.31 108.46,-120.72 294.75,-168.78 414.13,-108.65 -2.09,-50.4 -10.68,-153.01 9.92,-195.39 17.72,-36.42 80.32,-67.33 131.18,-31.21 43.12,30.61 60.5,223.9 -8.04,295.16zm-260.81 -1317.43l-96.29 56.31c-34.73,20.86 -67.68,38.99 -97.85,61.06 53.97,120.59 -29.45,114.11 -206.53,304.06 -315.48,338.42 -416.22,781.87 -331.95,1262.53 80.4,458.59 340.4,957.08 630.34,1306.75 45.41,54.76 87.88,101.18 128.48,153.28l270.52 281.34c93.77,85.17 187.68,171.43 291.85,259.97 197.23,167.64 417.37,309.54 653.19,462.39 104.23,67.57 233.8,145.04 348.99,202.59 292.86,146.28 521.39,216.52 860.83,26.64 202.11,-113.07 281.71,-197.12 378.14,-116.12 46.96,-9.89 155.73,-89.49 203.13,-116.06 -33.21,-121.79 35.97,-138.88 111.16,-190.31 65.53,-44.82 124.05,-86.84 191.09,-137.87 66.74,-50.78 120.11,-92.01 184.64,-144.24 60.2,-48.73 105.76,-94.57 170.08,-145.96l168.05 -161.7c30.11,-30.11 51.85,-52.2 80.4,-84.26 28.69,-32.23 55.42,-50.02 82.71,-81.21l223.1 -270.49c305.46,-372.13 586.44,-965.41 610.36,-1496.25 11.2,-248.69 -33.68,-354 -82.22,-565.5l-266.69 0c0,525.36 52.7,566.15 -372.49,566.15 -412.22,0 -367.3,-24.5 -367.3,-561.5 -116.87,-18.52 -360.21,16.68 -451.26,-18.23 -136.41,-52.31 -114.48,-195.49 -114.48,-360.27 0,-164.77 -16.78,-297.7 121.99,-352.41 79.3,-31.27 335.25,-3.1 443.17,-16.54l0.58 -145.47c-331.3,-118.27 -794.13,-57.5 -1091.86,76.76 -350.87,158.2 -482.15,375.41 -551.71,410.5 -185.14,93.38 -192.19,-135.9 -584.12,-348.79 -746.78,-405.65 -1337.44,-76.7 -1433.55,-67.04 -63.24,6.35 -76.01,-26.8 -104.5,-50.11z"/>
   <path class="fil2" d="M5649.13 2341.6c7.21,-67.28 -12.03,-430.18 17.21,-476.22l45.76 -15.29c64.69,-4.9 294.04,-9.35 336.66,14.48 16.65,118.48 -31.77,452.33 34.04,522.85 71.77,76.89 404.93,30.95 533.34,41.01l0.66 384.47c-693.48,52.49 -530.12,-158.15 -566.7,563.31l-386.68 5.18c-4.96,-115.45 23.66,-471.93 -30.48,-532.32 -71,-79.21 -410.48,-3.43 -534.09,-41.35l-2.46 -372.69c144.57,-50.44 534.04,74.07 552.74,-93.43zm1144.12 68.76l0 359.75c-1.74,125.2 -25.8,161.65 -117.42,210.13 26.01,111.66 42.31,112.21 65.82,274.68 28.73,198.42 10.29,429.16 -25.58,622.69 -90.82,489.96 -366.9,986.07 -676.99,1366.06 -28.28,34.66 -54.44,64.17 -79.46,96.66 -27.56,35.76 -49.99,51.27 -78.76,85.62 -85.07,101.62 -341.22,356.48 -431.11,426.03 -186.25,144.09 -251.58,210.33 -476.37,369.02 -72.52,51.2 -127.07,123.86 -219.65,46.89 -33.21,-121.79 35.97,-138.88 111.16,-190.31 65.53,-44.82 124.05,-86.84 191.09,-137.87 66.74,-50.78 120.11,-92.01 184.64,-144.24 60.2,-48.73 105.76,-94.57 170.08,-145.96l168.05 -161.7c30.11,-30.11 51.85,-52.2 80.4,-84.26 28.69,-32.23 55.42,-50.02 82.71,-81.21l223.1 -270.49c305.46,-372.13 586.44,-965.41 610.36,-1496.25 11.2,-248.69 -33.68,-354 -82.22,-565.5l-266.69 0c0,525.36 52.7,566.15 -372.49,566.15 -412.22,0 -367.3,-24.5 -367.3,-561.5 -116.87,-18.52 -360.21,16.68 -451.26,-18.23 -136.41,-52.31 -114.48,-195.49 -114.48,-360.27 0,-164.77 -16.78,-297.7 121.99,-352.41 79.3,-31.27 335.25,-3.1 443.17,-16.54l0.58 -145.47c-331.3,-118.27 -794.13,-57.5 -1091.86,76.76 -350.87,158.2 -482.15,375.41 -551.71,410.5 -185.14,93.38 -192.19,-135.9 -584.12,-348.79 -746.78,-405.65 -1337.44,-76.7 -1433.55,-67.04 -63.24,6.35 -76.01,-26.8 -104.5,-50.11 0,-83.83 4.27,-93.39 65.87,-122.04 319.71,-148.64 739.14,-168.49 1072.32,-100.36 183.23,37.47 374.7,115.72 515.25,200.99 95.31,57.83 320.42,211.6 389.59,314.9 58.14,-38.93 95.96,-95.95 149.77,-143.77 398.65,-354.26 1021.03,-487.73 1564.51,-361.12 0,-276.39 259.52,-247.55 540.34,-235.06 114.35,5.09 202.93,66.64 211.07,176.4 8.54,115.1 0.05,268.13 0.05,387.43 104.26,0 263.74,-9.31 361.1,2.89 138.82,17.4 187.47,75.15 202.5,166.95z"/>
   <path class="fil3" d="M4919.2 4885.96l30.62 -11.65 553.73 -1.02 10.38 -15.13 -2.42 -477.63c-15.14,-29.43 6.12,-16.28 -33.32,-26.52 -155.93,-20.19 -558.05,46.42 -633.96,-46.98 -64.73,-79.65 -5.07,-517.46 -34.32,-646.72 -61.01,-13.31 -440.78,-12.11 -509.94,-2.02 -32.19,138.43 32.15,574.1 -35,656.64 -80.18,98.55 -638.09,-16.25 -664.92,61.11 -18.83,54.29 -7.09,464.69 0.14,493.99 136.93,34.37 568.41,-38.51 653.11,39.82 104.49,96.63 -25.04,629.67 67.67,660.66 50.82,16.99 290.76,7.26 358.86,8.01 176.67,1.94 137.33,31.22 137.32,-390.86 0,-129.11 -31.8,-294.1 102.05,-301.7z"/>
   <path class="fil2" d="M5511.51 4380.53c22.95,28.5 22.33,425.63 2.42,477.63 7.02,23.61 12.94,20.73 -10.38,15.13 -52.97,28.65 -494.35,16.99 -584.35,12.67 -133.85,7.6 -102.05,172.59 -102.05,301.7 0.01,422.08 39.35,392.8 -137.32,390.86 -68.1,-0.75 -308.04,8.98 -358.86,-8.01 -92.71,-30.99 36.82,-564.03 -67.67,-660.66 -84.7,-78.33 -516.18,-5.45 -653.11,-39.82 -7.23,-29.3 -18.97,-439.7 -0.14,-493.99 26.83,-77.36 584.74,37.44 664.92,-61.11 67.15,-82.54 2.81,-518.21 35,-656.64 69.16,-10.09 448.93,-11.29 509.94,2.02 29.25,129.26 -30.41,567.07 34.32,646.72 75.91,93.4 478.03,26.79 633.96,46.98 39.44,10.24 18.18,-2.91 33.32,26.52zm-529.49 1203.96c5.5,-67.46 -4.9,-512.42 11.22,-530.08 23.87,-26.15 451.93,-8.3 527.06,-12.04 137.9,-7.1 173.06,-138.53 172.88,-253.84 -1.01,-671.01 69.69,-609.62 -701.3,-609.62 0,-669.32 73.35,-700.25 -429.54,-700.25 -506.24,0 -444.5,3.42 -444.5,700.25 -683.71,0 -700,-66.49 -700,433.41 0,509.71 14.61,440.07 700,440.07 0,143.33 -0.94,286.1 -1.24,428.86 -0.74,348.54 239.04,272.06 598.4,273.28 77.67,0.26 124.69,3.01 180.95,-33.44 50.03,-32.41 86.58,-81.5 86.07,-136.6z"/>
   <path class="fil2" d="M4550.6 6383.95c-96.43,-81 -176.03,3.05 -378.14,116.12 -339.44,189.88 -567.97,119.64 -860.83,-26.64 -115.19,-57.55 -244.76,-135.02 -348.99,-202.59 -235.82,-152.85 -455.96,-294.75 -653.19,-462.39 -104.17,-88.54 -198.08,-174.8 -291.85,-259.97l-270.52 -281.34c-40.6,-52.1 -83.07,-98.52 -128.48,-153.28 -289.94,-349.67 -549.94,-848.16 -630.34,-1306.75 -84.27,-480.66 16.47,-924.11 331.95,-1262.53 177.08,-189.95 260.5,-183.47 206.53,-304.06 -27.92,-26.69 -53.87,-47.66 -102.71,-28.12 -67.39,26.95 -252.19,220.29 -302.2,286.21 -21.97,28.95 -41.63,54.68 -65.29,87.35 -181.85,250.99 -264.23,528.34 -274.99,818.01l0 134.04c8.6,238.95 61.98,484.66 145.18,729.52 50.59,148.91 120.32,277.31 187.35,411.47 34.47,68.97 69.15,120.35 108.68,184.86 43.64,71.21 77.86,119.98 122.3,182.98 41.88,59.36 78.19,109.65 125.55,168l667.96 682.32c393.11,307.26 717.98,552.58 1171.31,777.79 310.2,154.1 640.09,166.61 940.42,-14.62 33.79,-20.39 57.41,-29.8 93.04,-47.85 40.51,-20.53 57.17,-33.11 97.56,-55.08 63.64,-34.63 155.16,-72.46 109.7,-173.45z"/>
   <path class="fil4" d="M5649.13 2341.6c-18.7,167.5 -408.17,42.99 -552.74,93.43l2.46 372.69c123.61,37.92 463.09,-37.86 534.09,41.35 54.14,60.39 25.52,416.87 30.48,532.32l386.68 -5.18c36.58,-721.46 -126.78,-510.82 566.7,-563.31l-0.66 -384.47c-128.41,-10.06 -461.57,35.88 -533.34,-41.01 -65.81,-70.52 -17.39,-404.37 -34.04,-522.85l-382.42 0.81c-1.05,81.97 -0.46,163.99 -0.46,245.98 0,46.15 20.54,212.48 -16.75,230.24z"/>
   <path class="fil5" d="M3382.77 3437.19c-146.82,87.96 -123.02,280.8 -10.82,381.57 106.06,95.26 298.9,121.93 446.36,50.2 310.24,-150.93 186.53,-577.33 -301.44,-510.3 -14.65,74.87 -59.63,93 -134.1,78.53z"/>
   <path class="fil5" d="M1981.69 3440.58c-70.6,5.81 -114.35,5.41 -133.06,-68.56 -119.38,-60.13 -305.67,-12.07 -414.13,108.65 -234.6,261.07 267.12,591.39 548.53,337.31 44.57,-40.25 99.17,-98.94 97.88,-192.26 -1.1,-79.26 -49.56,-166.94 -99.22,-185.14z"/>
   <path class="fil2" d="M2467.22 3273.12c-225.92,73.97 146.3,402.88 448.49,173.48 33.06,-25.09 77.57,-93.91 26.11,-149 -101.37,-108.5 -159.15,128.12 -335.53,42.3 -45.41,-22.09 -75.23,-87.68 -139.07,-66.78z"/>
   <path class="fil2" d="M1848.63 3372.02c18.71,73.97 62.46,74.37 133.06,68.56 68.54,-71.26 51.16,-264.55 8.04,-295.16 -50.86,-36.12 -113.46,-5.21 -131.18,31.21 -20.6,42.38 -12.01,144.99 -9.92,195.39z"/>
   <path class="fil2" d="M3382.77 3437.19c74.47,14.47 119.45,-3.66 134.1,-78.53 -5.61,-142.17 31.52,-261.61 -146.69,-217.14 -31.29,47.8 -29.04,68.16 -29.21,143.98 -0.18,84.17 6.51,103.56 41.8,151.69z"/>
   <path class="fil6" d="M4982.02 5584.49c30.84,-46.21 18.11,-443.53 11.96,-528.25 77.5,-0.41 496.63,13.91 526.32,-13.87 -75.13,3.74 -503.19,-14.11 -527.06,12.04 -16.12,17.66 -5.72,462.62 -11.22,530.08z"/>
   <path class="fil7" d="M5513.93 4858.16l-10.38 15.13 -553.73 1.02 -30.62 11.65c90,4.32 531.38,15.98 584.35,-12.67 23.32,5.6 17.4,8.48 10.38,-15.13 19.91,-52 20.53,-449.13 -2.42,-477.63l2.42 477.63z"/>
   <path class="fil8" d="M5649.13 2341.6c37.29,-17.76 16.75,-184.09 16.75,-230.24 0,-81.99 -0.59,-164.01 0.46,-245.98l382.42 -0.81c-42.62,-23.83 -271.97,-19.38 -336.66,-14.48l-45.76 15.29c-29.24,46.04 -10,408.94 -17.21,476.22z"/>
  </g>
 </g>
</svg>
