<?xml version="1.0" encoding="UTF-8"?>
<!DOCTYPE svg PUBLIC "-//W3C//DTD SVG 1.1//EN" "http://www.w3.org/Graphics/SVG/1.1/DTD/svg11.dtd">
<!-- Creator: CorelDRAW (Versión de evaluación) -->
<svg xmlns="http://www.w3.org/2000/svg" xml:space="preserve" width="215.9mm" height="279.4mm" version="1.1" style="shape-rendering:geometricPrecision; text-rendering:geometricPrecision; image-rendering:optimizeQuality; fill-rule:evenodd; clip-rule:evenodd"
viewBox="0 0 21590 27940"
 xmlns:xlink="http://www.w3.org/1999/xlink"
 xmlns:xodm="http://www.corel.com/coreldraw/odm/2003"
 data-name="Capa 1">
 <defs>
  <style type="text/css">
   <![CDATA[
    .str0 {stroke:#5CC6D0;stroke-width:20;stroke-miterlimit:22.9256}
    .fil3 {fill:black}
    .fil9 {fill:#29374B}
    .fil7 {fill:#563A3E}
    .fil8 {fill:#6D693B}
    .fil5 {fill:#7BA0DA}
    .fil2 {fill:#E58996}
    .fil4 {fill:#F4EC85}
    .fil6 {fill:#FEFEFE}
    .fil0 {fill:#5CC6D0;fill-rule:nonzero}
    .fil1 {fill:white;fill-rule:nonzero}
   ]]>
  </style>
 </defs>
 <g id="Capa_x0020_1">
  <metadata id="CorelCorpID_0Corel-Layer"/>
  <circle class="fil0 str0" cx="10795.13" cy="13970.13" r="4758"/>
  <path class="fil1" d="M12801.73 13169.5l-1205.97 0 0 -1205.97c0,-69.1 -56.04,-125.14 -125.15,-125.14l-1350.96 -0.01c-69.09,0.01 -125.13,56.05 -125.13,125.16l0 1205.97 -1205.99 -0.01c-69.09,0.01 -125.13,56.05 -125.13,125.16l0 1350.96c0,69.09 56.04,125.13 125.15,125.13l1205.95 0.01 0 1205.71c0.02,-0.02 0.02,-0.02 0.02,-0.02 0,69.16 55.99,125.27 125.15,125.41l1350.94 0.02c0,-0.01 0,-0.01 0,-0.01 69.11,0 125.15,-56.04 125.15,-125.15 0,-0.08 0,-0.18 0,-0.26l0 -1205.7 1205.97 0c69.11,-0.01 125.15,-56.05 125.15,-125.16l0 -1350.95c0,-69.1 -56.04,-125.14 -125.15,-125.14l0 -0.01z"/>
  <g id="_1986917611056">
   <path class="fil2" d="M12971.52 15073.92c-37.68,35.26 -569.63,17.08 -667.99,17.6 7.81,107.52 23.96,611.79 -15.17,670.44 0.64,69.93 -45.75,132.23 -109.24,173.37 -71.41,46.26 -131.08,42.77 -229.66,42.43 -456.09,-1.54 -760.41,95.52 -759.47,-346.83 0.38,-181.19 1.58,-362.39 1.58,-544.3 -869.88,0 -888.42,88.39 -888.42,-558.52 0,-634.46 20.67,-550.07 888.42,-550.07 0,-884.39 -78.36,-888.73 564.14,-888.73 638.25,0 545.16,39.26 545.16,888.73 978.51,0 888.79,-77.91 890.06,773.71 0.24,146.35 -44.39,313.16 -219.41,322.17zm-2542.68 -2136.91c619.31,-85.07 776.32,456.1 382.57,647.65 -187.15,91.04 -431.89,57.19 -566.5,-63.71 -142.4,-127.89 -172.61,-372.64 13.73,-484.28 -44.79,-61.08 -53.28,-85.69 -53.05,-192.51 0.22,-96.23 -2.64,-122.07 37.07,-182.74 226.18,-56.44 179.06,95.15 186.18,275.59zm-1332.18 -108.56c81.02,-26.53 118.86,56.71 176.5,84.75 223.85,108.92 297.18,-191.39 425.84,-53.69 65.32,69.92 8.82,157.26 -33.14,189.11 -383.52,291.15 -855.93,-126.29 -569.2,-220.17zm-616.22 212.53c63.02,23.1 124.53,134.38 125.92,234.97 1.64,118.44 -67.66,192.93 -124.22,244.01 -357.16,322.47 -993.92,-96.76 -696.18,-428.1 137.66,-153.22 374.09,-214.21 525.6,-137.89 -2.65,-63.97 -13.55,-194.2 12.59,-247.99 22.49,-46.22 101.94,-85.45 166.49,-39.61 54.73,38.85 76.79,284.17 -10.2,374.61zm-331.01 -1672.04l-122.21 71.47c-44.08,26.47 -85.9,49.48 -124.19,77.5 68.49,153.04 -37.38,144.82 -262.12,385.89 -400.4,429.52 -528.25,992.33 -421.3,1602.37 102.04,582.02 432.02,1214.69 800,1658.48 57.64,69.5 111.54,128.41 163.07,194.53l343.33 357.07c119.01,108.1 238.2,217.58 370.41,329.95 250.32,212.76 529.71,392.86 829.01,586.85 132.28,85.75 296.73,184.08 442.92,257.12 371.69,185.65 661.73,274.8 1092.54,33.81 256.51,-143.51 357.54,-250.18 479.92,-147.38 59.6,-12.55 197.65,-113.57 257.81,-147.3 -42.15,-154.57 45.65,-176.26 141.08,-241.53 83.17,-56.89 157.44,-110.21 242.52,-174.98 84.71,-64.45 152.44,-116.78 234.34,-183.06 76.4,-61.85 134.23,-120.03 215.86,-185.25l213.28 -205.22c38.22,-38.22 65.81,-66.26 102.05,-106.95 36.41,-40.9 70.34,-63.48 104.97,-103.06l283.15 -343.3c387.68,-472.3 744.29,-1225.27 774.65,-1898.99 14.21,-315.63 -42.75,-449.28 -104.35,-717.72l-338.48 0c0,666.77 66.89,718.54 -472.75,718.54 -523.18,0 -466.16,-31.09 -466.16,-712.63 -148.33,-23.51 -457.17,21.16 -572.73,-23.14 -173.13,-66.39 -145.29,-248.11 -145.29,-457.24 0,-209.12 -21.3,-377.83 154.82,-447.27 100.65,-39.69 425.49,-3.94 562.46,-20.99l0.74 -184.63c-420.48,-150.1 -1007.89,-72.97 -1385.76,97.42 -445.31,200.78 -611.92,476.46 -700.21,521 -234.97,118.51 -243.92,-172.48 -741.34,-442.68 -947.79,-514.83 -1697.43,-97.34 -1819.42,-85.08 -80.26,8.06 -96.47,-34.01 -132.62,-63.6z"/>
   <path class="fil3" d="M13135.03 11646.19c9.15,-85.39 -15.27,-545.97 21.84,-604.4l58.08 -19.41c82.1,-6.21 373.18,-11.86 427.28,18.38 21.12,150.37 -40.33,574.08 43.19,663.59 91.1,97.58 513.93,39.27 676.9,52.04l0.84 487.96c-880.14,66.62 -672.81,-200.72 -719.23,714.93l-490.77 6.58c-6.29,-146.53 30.03,-598.96 -38.68,-675.61 -90.11,-100.53 -520.97,-4.35 -677.85,-52.48l-3.12 -473c183.48,-64.02 677.79,94 701.52,-118.58zm1452.08 87.27l0 456.58c-2.21,158.9 -32.75,205.16 -149.03,266.69 33.01,141.72 53.7,142.41 83.54,348.62 36.46,251.82 13.06,544.67 -32.47,790.29 -115.26,621.84 -465.66,1251.49 -859.21,1733.76 -35.89,43.99 -69.09,81.44 -100.85,122.68 -34.98,45.38 -63.44,65.07 -99.96,108.66 -107.97,128.98 -433.06,452.43 -547.15,540.71 -236.38,182.87 -319.3,266.94 -604.59,468.35 -92.04,64.98 -161.27,157.2 -278.77,59.5 -42.15,-154.57 45.65,-176.26 141.08,-241.53 83.17,-56.89 157.44,-110.21 242.52,-174.98 84.71,-64.45 152.44,-116.78 234.34,-183.06 76.4,-61.85 134.23,-120.03 215.86,-185.25l213.28 -205.22c38.22,-38.22 65.81,-66.26 102.05,-106.95 36.41,-40.9 70.34,-63.48 104.97,-103.06l283.15 -343.3c387.68,-472.3 744.29,-1225.27 774.65,-1898.99 14.21,-315.63 -42.75,-449.28 -104.35,-717.72l-338.48 0c0,666.77 66.89,718.54 -472.75,718.54 -523.18,0 -466.16,-31.09 -466.16,-712.63 -148.33,-23.51 -457.17,21.16 -572.73,-23.14 -173.13,-66.39 -145.29,-248.11 -145.29,-457.24 0,-209.12 -21.3,-377.83 154.82,-447.27 100.65,-39.69 425.49,-3.94 562.46,-20.99l0.74 -184.63c-420.48,-150.1 -1007.89,-72.97 -1385.76,97.42 -445.31,200.78 -611.92,476.46 -700.21,521 -234.97,118.51 -243.92,-172.48 -741.34,-442.68 -947.79,-514.83 -1697.43,-97.34 -1819.42,-85.08 -80.26,8.06 -96.47,-34.01 -132.62,-63.6 0,-106.39 5.41,-118.53 83.59,-154.89 405.77,-188.65 938.1,-213.84 1360.96,-127.37 232.55,47.55 475.55,146.87 653.94,255.09 120.96,73.4 406.66,268.56 494.45,399.66 73.79,-49.41 121.79,-121.78 190.08,-182.47 505.96,-449.61 1295.86,-619.01 1985.63,-458.32 0,-350.79 329.37,-314.18 685.78,-298.33 145.13,6.46 257.55,84.58 267.88,223.88 10.84,146.08 0.06,340.3 0.06,491.72 132.33,0 334.73,-11.82 458.3,3.66 176.18,22.08 237.93,95.38 257.01,211.89z"/>
   <path class="fil4" d="M12208.63 14875.41l38.86 -14.79 702.78 -1.29 13.17 -19.21 -3.07 -606.19c-19.22,-37.35 7.76,-20.66 -42.29,-33.66 -197.91,-25.62 -708.26,58.92 -804.6,-59.62 -82.16,-101.09 -6.44,-656.75 -43.56,-820.79 -77.44,-16.9 -559.43,-15.38 -647.2,-2.57 -40.86,175.69 40.81,728.63 -44.42,833.38 -101.76,125.08 -809.84,-20.62 -843.89,77.56 -23.91,68.91 -9.01,589.77 0.17,626.96 173.79,43.62 721.41,-48.88 828.91,50.53 132.61,122.65 -31.78,799.16 85.88,838.5 64.5,21.56 369.03,9.21 455.45,10.16 224.23,2.46 174.3,39.63 174.29,-496.07 0,-163.86 -40.36,-373.26 129.52,-382.9z"/>
   <path class="fil3" d="M12960.37 14233.93c29.12,36.17 28.33,540.2 3.07,606.19 8.91,29.97 16.42,26.31 -13.17,19.21 -67.23,36.36 -627.42,21.56 -741.64,16.08 -169.88,9.64 -129.52,219.04 -129.52,382.9 0.01,535.7 49.94,498.53 -174.29,496.07 -86.42,-0.95 -390.95,11.4 -455.45,-10.16 -117.66,-39.34 46.73,-715.85 -85.88,-838.5 -107.5,-99.41 -655.12,-6.91 -828.91,-50.53 -9.18,-37.19 -24.08,-558.05 -0.17,-626.96 34.05,-98.18 742.13,47.52 843.89,-77.56 85.23,-104.75 3.56,-657.69 44.42,-833.38 87.77,-12.81 569.76,-14.33 647.2,2.57 37.12,164.04 -38.6,719.7 43.56,820.79 96.34,118.54 606.69,34 804.6,59.62 50.05,13 23.07,-3.69 42.29,33.66zm-672.01 1528.03c6.98,-85.62 -6.22,-650.35 14.24,-672.76 30.29,-33.19 573.57,-10.54 668.92,-15.28 175.02,-9.01 219.65,-175.82 219.41,-322.17 -1.27,-851.62 88.45,-773.71 -890.06,-773.71 0,-849.47 93.09,-888.73 -545.16,-888.73 -642.5,0 -564.14,4.34 -564.14,888.73 -867.75,0 -888.42,-84.39 -888.42,550.07 0,646.91 18.54,558.52 888.42,558.52 0,181.91 -1.2,363.11 -1.58,544.3 -0.94,442.35 303.38,345.29 759.47,346.83 98.58,0.34 158.25,3.83 229.66,-42.43 63.49,-41.14 109.88,-103.44 109.24,-173.37z"/>
   <path class="fil3" d="M11740.81 16776.6c-122.38,-102.8 -223.41,3.87 -479.92,147.38 -430.81,240.99 -720.85,151.84 -1092.54,-33.81 -146.19,-73.04 -310.64,-171.37 -442.92,-257.12 -299.3,-193.99 -578.69,-374.09 -829.01,-586.85 -132.21,-112.37 -251.4,-221.85 -370.41,-329.95l-343.33 -357.07c-51.53,-66.12 -105.43,-125.03 -163.07,-194.53 -367.98,-443.79 -697.96,-1076.46 -800,-1658.48 -106.95,-610.04 20.9,-1172.85 421.3,-1602.37 224.74,-241.07 330.61,-232.85 262.12,-385.89 -35.43,-33.88 -68.37,-60.5 -130.35,-35.69 -85.54,34.2 -320.08,279.58 -383.55,363.24 -27.88,36.75 -52.84,69.4 -82.86,110.87 -230.8,318.54 -335.35,670.55 -349.01,1038.19l0 170.11c10.91,303.27 78.66,615.12 184.26,925.88 64.21,189 152.7,351.96 237.78,522.23 43.74,87.53 87.76,152.75 137.93,234.62 55.38,90.38 98.81,152.27 155.22,232.23 53.15,75.34 99.23,139.16 159.34,213.22l847.75 865.98c498.92,389.96 911.24,701.31 1486.59,987.14 393.7,195.58 812.38,211.46 1193.55,-18.55 42.89,-25.88 72.86,-37.82 118.09,-60.73 51.41,-26.06 72.55,-42.03 123.81,-69.91 80.78,-43.95 196.93,-91.96 139.23,-220.14z"/>
   <path class="fil5" d="M13135.03 11646.19c-23.73,212.58 -518.04,54.56 -701.52,118.58l3.12 473c156.88,48.13 587.74,-48.05 677.85,52.48 68.71,76.65 32.39,529.08 38.68,675.61l490.77 -6.58c46.42,-915.65 -160.91,-648.31 719.23,-714.93l-0.84 -487.96c-162.97,-12.77 -585.8,45.54 -676.9,-52.04 -83.52,-89.51 -22.07,-513.22 -43.19,-663.59l-485.36 1.03c-1.33,104.03 -0.58,208.13 -0.58,312.19 0,58.57 26.07,269.67 -21.26,292.21z"/>
   <path class="fil6" d="M10258.64 13036.67c-186.34,111.64 -156.13,356.39 -13.73,484.28 134.61,120.9 379.35,154.75 566.5,63.71 393.75,-191.55 236.74,-732.72 -382.57,-647.65 -18.6,95.02 -75.69,118.03 -170.2,99.66z"/>
   <path class="fil6" d="M8480.44 13040.98c-89.61,7.37 -145.13,6.86 -168.88,-87.01 -151.51,-76.32 -387.94,-15.33 -525.6,137.89 -297.74,331.34 339.02,750.57 696.18,428.1 56.56,-51.08 125.86,-125.57 124.22,-244.01 -1.39,-100.59 -62.9,-211.87 -125.92,-234.97z"/>
   <path class="fil3" d="M9096.66 12828.45c-286.73,93.88 185.68,511.32 569.2,220.17 41.96,-31.85 98.46,-119.19 33.14,-189.11 -128.66,-137.7 -201.99,162.61 -425.84,53.69 -57.64,-28.04 -95.48,-111.28 -176.5,-84.75z"/>
   <path class="fil3" d="M8311.56 12953.97c23.75,93.87 79.27,94.38 168.88,87.01 86.99,-90.44 64.93,-335.76 10.2,-374.61 -64.55,-45.84 -144,-6.61 -166.49,39.61 -26.14,53.79 -15.24,184.02 -12.59,247.99z"/>
   <path class="fil3" d="M10258.64 13036.67c94.51,18.37 151.6,-4.64 170.2,-99.66 -7.12,-180.44 40,-332.03 -186.18,-275.59 -39.71,60.67 -36.85,86.51 -37.07,182.74 -0.23,106.82 8.26,131.43 53.05,192.51z"/>
   <path class="fil7" d="M12288.36 15761.96c39.13,-58.65 22.98,-562.92 15.17,-670.44 98.36,-0.52 630.31,17.66 667.99,-17.6 -95.35,4.74 -638.63,-17.91 -668.92,15.28 -20.46,22.41 -7.26,587.14 -14.24,672.76z"/>
   <path class="fil8" d="M12963.44 14840.12l-13.17 19.21 -702.78 1.29 -38.86 14.79c114.22,5.48 674.41,20.28 741.64,-16.08 29.59,7.1 22.08,10.76 13.17,-19.21 25.26,-65.99 26.05,-570.02 -3.07,-606.19l3.07 606.19z"/>
   <path class="fil9" d="M13135.03 11646.19c47.33,-22.54 21.26,-233.64 21.26,-292.21 0,-104.06 -0.75,-208.16 0.58,-312.19l485.36 -1.03c-54.1,-30.24 -345.18,-24.59 -427.28,-18.38l-58.08 19.41c-37.11,58.43 -12.69,519.01 -21.84,604.4z"/>
  </g>
 </g>
</svg>
