<?xml version="1.0" encoding="UTF-8"?>
<!DOCTYPE svg PUBLIC "-//W3C//DTD SVG 1.1//EN" "http://www.w3.org/Graphics/SVG/1.1/DTD/svg11.dtd">
<!-- Creator: CorelDRAW (Versión de evaluación) -->
<svg xmlns="http://www.w3.org/2000/svg" xml:space="preserve" width="76.2mm" height="76.2mm" version="1.1" style="shape-rendering:geometricPrecision; text-rendering:geometricPrecision; image-rendering:optimizeQuality; fill-rule:evenodd; clip-rule:evenodd"
viewBox="0 0 7620 7620"
 xmlns:xlink="http://www.w3.org/1999/xlink"
 xmlns:xodm="http://www.corel.com/coreldraw/odm/2003">
 <defs>
  <style type="text/css">
   <![CDATA[
    .fil2 {fill:#040404}
    .fil3 {fill:#917954}
    .fil4 {fill:#AC9774}
    .fil0 {fill:#FCD496}
    .fil1 {fill:#FDD5D6}
   ]]>
  </style>
 </defs>
 <g id="Capa_x0020_1">
  <metadata id="CorelCorpID_0Corel-Layer"/>
  <g id="_2022859652048">
   <path class="fil0" d="M2375.88 4606.18c153.32,-43.76 136.1,-8.46 301.62,25.76 123.48,25.54 190.38,25.02 274.01,90.09 174.24,135.56 91.43,380.61 -114.37,424.65 -133.04,28.48 -812.99,19.68 -647.58,-382.55 20.51,-49.84 37.16,-75.43 69.03,-105.14 69.93,-65.18 31.62,-28.39 117.29,-52.81zm2389.65 454.44c-56.36,-86.49 -137.22,-131.28 -114.34,-276.32 31.73,-200.89 317.71,-205.43 474.72,-262.64 152.73,-55.64 544.36,-179.6 432.05,212.28 -31.82,111 -113.85,116.45 -214.6,162.38 -232.36,105.95 -225.27,175.47 -577.83,164.3zm-844.79 -10.6c-37.64,26.51 42.08,8.63 -62.38,31.42 -69.09,15.08 -168.46,-25.79 -173.72,-38.9 -3.85,-9.6 -12.8,-8.54 -19.31,-12.65 -82.69,-88.89 -145.1,-91.52 -183.32,-250.59 -29.64,-29.13 -24.65,48.79 -34.59,-68.15 73.55,-40.99 108.46,-38.25 198.8,-34.42l22.17 56.5 17.88 41.19c43.1,65.63 26.79,55.87 99.17,74.32l93.29 1.71 40.24 -6.77c-3.17,-35.87 -9.65,-26.05 28.37,-19.16 -7.17,-38.05 -17.57,-31.71 17.19,-30.25l9.11 -38.59 34.99 -47.36 -12.42 -18.62c48.33,-89.4 160.18,-64.27 235.13,-26.91 -1.77,54.41 9.26,49.73 -42.33,99.29 -36.79,132.33 -139.7,248.38 -268.27,287.94zm-1298.76 -1189.51c358.46,-186.8 453.09,463.46 194.4,607.62 -301.97,168.3 -495.57,-450.67 -194.4,-607.62zm2070.2 551.58c-92.6,-48.3 -147.22,-103.2 -181.75,-216.56 -12.25,-134.39 -14.19,-264.18 58.41,-369.55 163.33,-237.11 515.88,1.08 412.11,361.75 -43.38,150.81 -123.56,200.65 -288.77,224.36zm2416.02 -1224.47c153.18,-574.81 -1160.55,-592.43 -1517.11,-677.12 -254.81,-60.53 -540.87,-95.77 -637.1,-224.11 -216.25,-288.52 -221.22,-543.59 -448.3,-882.92 -137.33,-205.25 -564.47,-1017.42 -929.42,-720.62 -353.24,287.26 -511.08,645.3 -727.99,1035.93l-302.28 567.18c-157.33,224.17 -987.06,156.47 -1467.04,296.2 -1029.39,299.74 -691.51,794.46 -126.67,1481.09 146.01,177.49 287.14,272.01 453.89,415.48 349.47,300.74 334.42,241.47 257.24,545.21 -152.7,601.17 -191.97,965.21 -68.35,1545.93 61.7,289.86 150.16,407.34 502.69,317.11 358.46,-91.77 925.39,-351.53 1215.62,-544.62 142.93,-95.08 352.44,-367.26 582.43,-194.03 161.47,121.66 332.45,271.44 495.46,374.04 211.76,133.3 1053.75,511.97 1368.77,381.75 280.01,-115.74 162.67,-1197.14 129.71,-1541.07 -20.82,-217.23 -124.88,-622.31 -35.73,-783.46 171.86,-310.74 1169.46,-1074.12 1254.18,-1391.97z"/>
   <path class="fil1" d="M2375.88 4606.18c-85.67,24.42 -47.36,-12.37 -117.29,52.81 -31.87,29.71 -48.52,55.3 -69.03,105.14 -165.41,402.23 514.54,411.03 647.58,382.55 205.8,-44.04 288.61,-289.09 114.37,-424.65 -83.63,-65.07 -150.53,-64.55 -274.01,-90.09 -165.52,-34.22 -148.3,-69.52 -301.62,-25.76z"/>
   <path class="fil1" d="M4765.53 5060.62c352.56,11.17 345.47,-58.35 577.83,-164.3 100.75,-45.93 182.78,-51.38 214.6,-162.38 112.31,-391.88 -279.32,-267.92 -432.05,-212.28 -157.01,57.21 -442.99,61.75 -474.72,262.64 -22.88,145.04 57.98,189.83 114.34,276.32z"/>
   <path class="fil2" d="M2621.98 3860.51c-301.17,156.95 -107.57,775.92 194.4,607.62 258.69,-144.16 164.06,-794.42 -194.4,-607.62z"/>
   <path class="fil2" d="M4510.43 4195.53l181.75 216.56c165.21,-23.71 245.39,-73.55 288.77,-224.36 103.77,-360.67 -248.78,-598.86 -412.11,-361.75 -72.6,105.37 -70.66,235.16 -58.41,369.55z"/>
   <path class="fil2" d="M3996.21 4689.7l12.42 18.62 -34.99 47.36 -9.11 38.59c10.51,42.99 23.08,38.84 -17.19,30.25 8.65,40.73 13.94,29.64 -28.37,19.16l-40.24 6.77c-51.62,67.04 -75.38,13.94 -93.29,-1.71 -72.38,-18.45 -56.07,-8.69 -99.17,-74.32 -46.07,0 -32.28,8.42 -17.88,-41.19l-192.52 -9.88 6.14 55.95c38.22,159.07 100.63,161.7 183.32,250.59l255.41 20.13c128.57,-39.56 231.48,-155.61 268.27,-287.94l7.8 -95.66 -200.6 23.28z"/>
   <path class="fil3" d="M3482.01 4779.3l-6.14 -55.95 192.52 9.88c-14.4,49.61 -28.19,41.19 17.88,41.19l-17.88 -41.19 -22.17 -56.5c-90.34,-3.83 -125.25,-6.57 -198.8,34.42 9.94,116.94 4.95,39.02 34.59,68.15z"/>
   <path class="fil4" d="M3996.21 4689.7l200.6 -23.28 -7.8 95.66c51.59,-49.56 40.56,-44.88 42.33,-99.29 -74.95,-37.36 -186.8,-62.49 -235.13,26.91z"/>
   <path class="fil3" d="M3920.74 5050.02l-255.41 -20.13c6.51,4.11 15.46,3.05 19.31,12.65 5.26,13.11 104.63,53.98 173.72,38.9 104.46,-22.79 24.74,-4.91 62.38,-31.42z"/>
   <path class="fil3" d="M4692.18 4412.09l-181.75 -216.56c34.53,113.36 89.15,168.26 181.75,216.56z"/>
   <path class="fil3" d="M3973.64 4755.68l-9.11 38.59c-34.76,-1.46 -24.36,-7.8 -17.19,30.25 -38.02,-6.89 -31.54,-16.71 -28.37,19.16l-40.24 6.77 -93.29 -1.71c17.91,15.65 41.67,68.75 93.29,1.71l40.24 -6.77c42.31,10.48 37.02,21.57 28.37,-19.16 40.27,8.59 27.7,12.74 17.19,-30.25l9.11 -38.59 34.99 -47.36 -34.99 47.36z"/>
  </g>
 </g>
</svg>
